<svg width="24" height="24" viewBox="0 0 24 24" fill="none" xmlns="http://www.w3.org/2000/svg">
<path opacity="0.2" d="M7.5 13.5V17.25C7.5 17.6478 7.34196 18.0294 7.06066 18.3107C6.77936 18.592 6.39782 18.75 6 18.75H4.5C4.10218 18.75 3.72064 18.592 3.43934 18.3107C3.15804 18.0294 3 17.6478 3 17.25V12H6C6.39782 12 6.77936 12.158 7.06066 12.4393C7.34196 12.7206 7.5 13.1022 7.5 13.5ZM18 12C17.6022 12 17.2206 12.158 16.9393 12.4393C16.658 12.7206 16.5 13.1022 16.5 13.5V17.25C16.5 17.6478 16.658 18.0294 16.9393 18.3107C17.2206 18.592 17.6022 18.75 18 18.75H21V12H18Z" fill="currentColor"/>
<path d="M18.9272 5.12437C17.5651 3.7543 15.8269 2.81941 13.933 2.43817C12.039 2.05694 10.0745 2.24652 8.28838 2.98289C6.50227 3.71927 4.97496 4.96928 3.89998 6.57454C2.82501 8.1798 2.25076 10.068 2.25 12V17.25C2.25 17.8467 2.48705 18.419 2.90901 18.841C3.33097 19.2629 3.90326 19.5 4.5 19.5H6C6.59674 19.5 7.16903 19.2629 7.59099 18.841C8.01295 18.419 8.25 17.8467 8.25 17.25V13.5C8.25 12.9033 8.01295 12.331 7.59099 11.909C7.16903 11.487 6.59674 11.25 6 11.25H3.78375C3.92839 9.68618 4.51578 8.196 5.47709 6.95409C6.43839 5.71219 7.73377 4.77002 9.21141 4.23802C10.689 3.70602 12.2877 3.60623 13.82 3.95035C15.3524 4.29446 16.7548 5.06822 17.8631 6.18093C19.2177 7.54246 20.0509 9.33661 20.2172 11.25H18C17.4033 11.25 16.831 11.487 16.409 11.909C15.9871 12.331 15.75 12.9033 15.75 13.5V17.25C15.75 17.8467 15.9871 18.419 16.409 18.841C16.831 19.2629 17.4033 19.5 18 19.5H20.25C20.25 20.0967 20.0129 20.669 19.591 21.091C19.169 21.5129 18.5967 21.75 18 21.75H12.75C12.5511 21.75 12.3603 21.829 12.2197 21.9697C12.079 22.1103 12 22.3011 12 22.5C12 22.6989 12.079 22.8897 12.2197 23.0303C12.3603 23.171 12.5511 23.25 12.75 23.25H18C18.9946 23.25 19.9484 22.8549 20.6517 22.1516C21.3549 21.4484 21.75 20.4946 21.75 19.5V12C21.7549 10.7246 21.5081 9.46077 21.0237 8.28092C20.5393 7.10108 19.8268 6.02841 18.9272 5.12437ZM6 12.75C6.19891 12.75 6.38968 12.829 6.53033 12.9697C6.67098 13.1103 6.75 13.3011 6.75 13.5V17.25C6.75 17.4489 6.67098 17.6397 6.53033 17.7803C6.38968 17.921 6.19891 18 6 18H4.5C4.30109 18 4.11032 17.921 3.96967 17.7803C3.82902 17.6397 3.75 17.4489 3.75 17.25V12.75H6ZM18 18C17.8011 18 17.6103 17.921 17.4697 17.7803C17.329 17.6397 17.25 17.4489 17.25 17.25V13.5C17.25 13.3011 17.329 13.1103 17.4697 12.9697C17.6103 12.829 17.8011 12.75 18 12.75H20.25V18H18Z" fill="currentColor"/>
</svg>
