<svg width="24" height="24" viewBox="0 0 24 24" fill="none" xmlns="http://www.w3.org/2000/svg">
<path opacity="0.2" d="M20.9944 16.32C20.8487 17.4085 20.3127 18.407 19.486 19.1299C18.6593 19.8528 17.5982 20.2508 16.5 20.25C13.1185 20.25 9.87548 18.9067 7.48439 16.5156C5.0933 14.1245 3.75 10.8815 3.75 7.49998C3.74916 6.4018 4.1472 5.34068 4.87009 4.51398C5.59298 3.68728 6.59152 3.15126 7.68 3.0056C7.84091 2.98649 8.00368 3.02 8.14395 3.10112C8.28422 3.18224 8.39444 3.30661 8.45813 3.4556L10.4391 7.8806C10.4877 7.99426 10.5076 8.11818 10.4968 8.24134C10.486 8.36451 10.4449 8.48309 10.3772 8.58654L8.37375 10.9687C8.30268 11.076 8.26066 11.1998 8.25179 11.3281C8.24291 11.4565 8.26749 11.5849 8.32313 11.7009C9.09844 13.2881 10.7391 14.909 12.3309 15.6769C12.4475 15.7322 12.5766 15.7563 12.7053 15.7466C12.834 15.7369 12.958 15.6938 13.065 15.6215L15.4088 13.6247C15.5126 13.5556 15.6321 13.5134 15.7563 13.5021C15.8806 13.4908 16.0057 13.5107 16.1203 13.56L20.5416 15.5409C20.6913 15.6042 20.8163 15.7144 20.898 15.8549C20.9797 15.9954 21.0135 16.1586 20.9944 16.32Z" fill="currentColor"/>
<path d="M20.8472 14.8556L16.4306 12.8766L16.4184 12.8709C16.1891 12.7729 15.939 12.7335 15.6907 12.7564C15.4424 12.7793 15.2037 12.8638 14.9962 13.0022C14.9718 13.0183 14.9483 13.0358 14.9259 13.0547L12.6441 15C11.1984 14.2978 9.70593 12.8166 9.00374 11.3897L10.9519 9.07312C10.9706 9.04968 10.9884 9.02624 11.0053 9.00093C11.1407 8.79403 11.2229 8.55686 11.2444 8.31053C11.266 8.0642 11.2264 7.81636 11.1291 7.58906V7.57781L9.14437 3.15374C9.01569 2.8568 8.79442 2.60944 8.51361 2.44859C8.23279 2.28774 7.90748 2.22202 7.58624 2.26124C6.3159 2.42841 5.14985 3.05228 4.30587 4.01633C3.46189 4.98039 2.9977 6.2187 2.99999 7.49999C2.99999 14.9437 9.05624 21 16.5 21C17.7813 21.0023 19.0196 20.5381 19.9837 19.6941C20.9477 18.8501 21.5716 17.6841 21.7387 16.4137C21.778 16.0926 21.7125 15.7674 21.5518 15.4866C21.3911 15.2058 21.1439 14.9845 20.8472 14.8556ZM16.5 19.5C13.3185 19.4965 10.2682 18.2311 8.01855 15.9814C5.76886 13.7318 4.50347 10.6815 4.49999 7.49999C4.49647 6.58451 4.82629 5.69905 5.42787 5.00897C6.02945 4.31888 6.86165 3.87137 7.76906 3.74999C7.76869 3.75373 7.76869 3.7575 7.76906 3.76124L9.73781 8.16749L7.79999 10.4869C7.78032 10.5095 7.76246 10.5336 7.74656 10.5591C7.60548 10.7755 7.52271 11.0248 7.50629 11.2827C7.48986 11.5406 7.54033 11.7983 7.65281 12.0309C8.50218 13.7681 10.2525 15.5053 12.0084 16.3537C12.2428 16.4652 12.502 16.5139 12.7608 16.4952C13.0196 16.4764 13.2691 16.3909 13.485 16.2469C13.5091 16.2307 13.5322 16.2131 13.5544 16.1944L15.8334 14.25L20.2397 16.2234C20.2397 16.2234 20.2472 16.2234 20.25 16.2234C20.1301 17.1321 19.6833 17.966 18.993 18.5691C18.3028 19.1721 17.4165 19.5031 16.5 19.5Z" fill="currentColor"/>
</svg>
