<svg width="32" height="32" viewBox="0 0 32 32" fill="none" xmlns="http://www.w3.org/2000/svg">
<g clip-path="url(#clip0_47_1235)">
<path d="M1.13999 10.8647C1.61536 11.0235 2.45274 11.3769 3.25017 12.1744C4.04761 12.9718 4.40105 13.8091 4.5598 14.2846C4.67411 14.6318 5.00661 14.9277 5.45017 14.9279C5.89374 14.9277 6.22624 14.6318 6.34055 14.2846C6.4993 13.8092 6.85274 12.9718 7.65017 12.1744C8.44761 11.3769 9.28505 11.0235 9.76036 10.8647C10.1076 10.7504 10.4035 10.4179 10.4037 9.97437C10.4035 9.53081 10.1076 9.19831 9.76036 9.084C9.28499 8.92525 8.44761 8.57181 7.65017 7.77437C6.85274 6.97694 6.4993 6.13963 6.34055 5.66419C6.22624 5.31694 5.89374 5.02106 5.45017 5.02087C5.00661 5.02106 4.67411 5.31694 4.5598 5.66419C4.40105 6.13956 4.04761 6.97694 3.25017 7.77437C2.45274 8.57181 1.6153 8.92525 1.13999 9.084C0.792736 9.19831 0.496861 9.53081 0.496674 9.97437C0.496861 10.4179 0.792736 10.7504 1.13999 10.8647ZM15.5699 9.975C15.5699 10.4928 15.9897 10.9125 16.5074 10.9125H17.5783V11.9833C17.5783 12.5011 17.998 12.9208 18.5158 12.9208C19.0335 12.9208 19.4533 12.5011 19.4533 11.9833V10.9125H20.5241C21.0419 10.9125 21.4616 10.4928 21.4616 9.975C21.4616 9.45725 21.0419 9.0375 20.5241 9.0375H19.4533V7.96669C19.4533 7.44894 19.0335 7.02919 18.5158 7.02919C17.998 7.02919 17.5783 7.44894 17.5783 7.96669V9.0375H16.5074C15.9897 9.0375 15.5699 9.45725 15.5699 9.975ZM11.4866 3.88331H12.5574V4.95412C12.5574 5.47188 12.9772 5.89162 13.4949 5.89162C14.0127 5.89162 14.4324 5.47188 14.4324 4.95412V3.88331H15.5033C16.021 3.88331 16.4408 3.46356 16.4408 2.94581C16.4408 2.42806 16.021 2.00831 15.5033 2.00831H14.4324V0.9375C14.4324 0.41975 14.0127 0 13.4949 0C12.9772 0 12.5574 0.41975 12.5574 0.9375V2.00831H11.4866C10.9689 2.00831 10.5491 2.42806 10.5491 2.94581C10.5491 3.46356 10.9689 3.88331 11.4866 3.88331ZM16.2148 28.2652C16.2481 28.2611 17.1964 28.1371 18.0845 27.5384C18.1182 27.5157 18.1498 27.4914 18.1824 27.4679L19.8869 18.9458H20.5241C21.0419 18.9458 21.4616 18.5261 21.4616 18.0083C21.4616 17.4906 21.0419 17.0708 20.5241 17.0708H2.44911C1.93136 17.0708 1.51161 17.4906 1.51161 18.0083C1.51161 18.5261 1.93136 18.9458 2.44911 18.9458H3.08642L4.76955 27.3616C4.86814 27.2994 4.9595 27.2263 5.04192 27.1439L10.8238 21.3621C11.1899 20.9959 11.7835 20.9959 12.1496 21.3621C12.5157 21.7282 12.5157 22.3218 12.1496 22.6879L6.36774 28.4697C6.06999 28.7675 5.65061 29.0598 5.14786 29.2533L5.54649 31.2464C5.58899 31.4589 5.70381 31.6501 5.8714 31.7875C6.039 31.9249 6.24902 32 6.46574 32H13.855C13.7646 31.7432 13.7118 31.4746 13.6984 31.2026C13.6238 29.7084 14.7282 28.4206 16.2148 28.2652Z" fill="#F26822"/>
<path d="M3.3441 27.4816C2.75992 27.2397 2.38242 26.6747 2.38242 26.0416C2.38242 25.8527 2.41779 25.6693 2.48473 25.4986L2.0136 23.143L1.49198 23.6646C0.857042 24.2996 0.507355 25.1437 0.507355 26.0423C0.507355 27.4358 1.33923 28.6807 2.62654 29.2139C3.56254 29.6016 4.43823 29.5262 5.14773 29.2533L4.76942 27.3616C4.34798 27.6276 3.81892 27.6782 3.3441 27.4816ZM27.4867 17.2688V0.9375C27.4867 0.41975 27.0669 0 26.5492 0C26.0314 0 25.6117 0.41975 25.6117 0.9375V17.2688C25.9223 17.2258 26.2356 17.2043 26.5492 17.2042C26.8672 17.2042 27.18 17.2265 27.4867 17.2688ZM26.5492 19.0792C23.8174 19.0792 21.595 21.3016 21.595 24.0334C21.595 29.551 16.546 30.1156 16.4142 30.1297C15.917 30.1794 15.5462 30.6102 15.5711 31.1092C15.596 31.6082 16.0078 32 16.5074 32H23.5366C30.5965 32 31.5033 26.6852 31.5033 24.0333C31.5033 21.3016 29.2809 19.0792 26.5492 19.0792Z" fill="#F26822"/>
</g>
<defs>
<clipPath id="clip0_47_1235">
<rect width="32" height="32" fill="white"/>
</clipPath>
</defs>
</svg>
