<svg width="32" height="32" viewBox="0 0 32 32" fill="none" xmlns="http://www.w3.org/2000/svg">
<g clip-path="url(#clip0_58_377)">
<path d="M22.8677 5.33325H8.59893L9.1573 10.1333H16.5333C16.616 10.1333 16.6986 10.1333 16.7813 10.1402C18.1322 10.1943 19.4217 10.719 20.4266 11.6234C20.5132 11.4933 20.6305 11.3866 20.7682 11.3128C20.9059 11.2389 21.0597 11.2002 21.2159 11.1999H22.1866L22.8677 5.33325ZM22.9333 21.1231V12.2666H21.3333V21.057C21.6854 21.1204 22.0423 21.1534 22.4 21.1557C22.5824 21.1557 22.7568 21.137 22.9333 21.1231ZM14.9333 16.5333V15.3493C14.9336 14.8251 15.3584 14.4002 15.8826 14.3999H17.6V13.2159C17.6003 12.6918 18.0251 12.2669 18.5493 12.2666H19.5397C18.7397 11.6172 17.7507 11.2446 16.721 11.2048C16.6447 11.1999 16.5892 11.1999 16.5332 11.1999H6.93324C4.28361 11.2032 2.13649 13.3503 2.13324 15.9999V16.5333H14.9333ZM7.46668 13.8666H6.93336C6.79192 13.8666 6.65627 13.8104 6.55626 13.7104C6.45624 13.6104 6.40005 13.4748 6.40005 13.3333C6.40005 13.1919 6.45624 13.0562 6.55626 12.9562C6.65627 12.8562 6.79192 12.8 6.93336 12.8H7.46668C7.76124 12.8 7.99999 13.0388 7.99999 13.3333C7.99999 13.6279 7.76124 13.8666 7.46668 13.8666ZM10.6667 14.9333H10.1334C9.8388 14.9333 9.60005 14.6945 9.60005 14.3999C9.60005 14.1054 9.8388 13.8666 10.1334 13.8666H10.6667C10.9612 13.8666 11.2 14.1054 11.2 14.3999C11.2 14.6945 10.9612 14.9333 10.6667 14.9333ZM13.8667 13.8666H13.3334C13.1919 13.8666 13.0563 13.8104 12.9563 13.7104C12.8562 13.6104 12.8001 13.4748 12.8001 13.3333C12.8001 13.1919 12.8562 13.0562 12.9563 12.9562C13.0563 12.8562 13.1919 12.8 13.3334 12.8H13.8667C14.1612 12.8 14.4 13.0388 14.4 13.3333C14.4 13.6279 14.1612 13.8666 13.8667 13.8666ZM18.6667 14.9333V19.6549C19.1098 20.1399 19.6567 20.5186 20.2667 20.7626V13.3333H18.6667V14.9333Z" fill="#F26822"/>
<path d="M17.6 17.897V15.4666H16V16.6341C16.338 16.7259 16.654 16.8851 16.929 17.1021C17.2039 17.3191 17.4322 17.5895 17.6 17.897ZM24 3.19995C24 3.05851 23.9438 2.92286 23.8438 2.82284C23.7438 2.72283 23.6081 2.66664 23.4667 2.66664H7.99998C7.85854 2.66664 7.72289 2.72283 7.62287 2.82284C7.52286 2.92286 7.46667 3.05851 7.46667 3.19995V4.26664H24V3.19995ZM24 20.9471C24.5811 20.7871 25.1249 20.5138 25.6 20.1429V13.3333H24V20.9471ZM22.4 1.06664C22.4 0.925194 22.3438 0.789544 22.2438 0.689529C22.1438 0.589513 22.0081 0.533325 21.8667 0.533325H9.59998C9.45854 0.533325 9.32289 0.589513 9.22287 0.689529C9.12286 0.789544 9.06667 0.925194 9.06667 1.06664V1.59995H22.4V1.06664ZM28.2667 16.8448V14.9333H26.6667V18.9477C26.8192 18.7012 26.9507 18.4424 27.0597 18.1738C27.29 17.6006 27.7182 17.129 28.2667 16.8448ZM2.44636 20.5797C2.33707 20.6871 2.25272 20.8172 2.19927 20.9608C2.14582 21.1043 2.12457 21.2579 2.13704 21.4106C2.21029 21.9878 2.70904 22.4156 3.29067 22.4H7.77923L5.64592 20.2666H3.19998C3.05989 20.2663 2.92113 20.2938 2.79175 20.3475C2.66238 20.4013 2.54498 20.4802 2.44636 20.5797Z" fill="#F26822"/>
<path d="M13.8762 17.6H3.73331V19.2H5.64799C5.9299 19.2002 6.20026 19.312 6.39999 19.5109L9.06668 22.1776L11.7334 19.5109C11.9331 19.312 12.2035 19.2002 12.4854 19.2H14.1184L13.8779 17.6304C13.8762 17.6202 13.8779 17.6101 13.8762 17.6ZM12.8 25.3776L14.9333 27.5109L15.3301 27.1141L14.7733 23.4667H3.73331V25.0667H12.048C12.3299 25.0669 12.6003 25.1786 12.8 25.3776Z" fill="#F26822"/>
<path d="M22.1333 28.2666C23.1643 28.2666 24 27.4308 24 26.3999C24 25.3689 23.1643 24.5332 22.1333 24.5332C21.1024 24.5332 20.2666 25.3689 20.2666 26.3999C20.2666 27.4308 21.1024 28.2666 22.1333 28.2666Z" fill="#F26822"/>
<path d="M10.3536 22.3999H14.608L14.2816 20.2666H12.4853L10.3536 22.3999Z" fill="#F26822"/>
<path d="M31.4667 30.3999H27.8843L29.8475 17.5999H29.5184C29.2052 17.5978 28.8983 17.6889 28.6369 17.8615C28.3755 18.0342 28.1713 18.2806 28.0502 18.5695C27.1232 20.8906 25.0635 22.2223 22.3969 22.2223C21.5325 22.2537 20.6718 22.096 19.8747 21.7601C19.0777 21.4242 18.3637 20.9183 17.7825 20.2778C17.7588 20.2556 17.7374 20.2311 17.7185 20.2047C17.3087 19.7157 16.9805 19.1637 16.7467 18.57C16.6257 18.2809 16.4214 18.0343 16.1599 17.8616C15.8983 17.6889 15.5914 17.5978 15.2779 17.5999H14.9521L16.9116 30.3999H15.8332L15.5302 28.4266L15.3105 28.6463C15.2105 28.7463 15.0748 28.8025 14.9334 28.8025C14.792 28.8025 14.6564 28.7463 14.5564 28.6463L12.0444 26.1333H2.13331V27.7333C2.13506 29.2053 3.32793 30.3981 4.79999 30.4H0.533307C0.392872 30.4015 0.258705 30.4583 0.159936 30.5582C0.0611664 30.658 0.00576782 30.7928 0.00576782 30.9332C0.00576782 31.0737 0.0611664 31.2085 0.159936 31.3083C0.258705 31.4081 0.392872 31.465 0.533307 31.4665H31.4666C31.7612 31.4665 31.9999 31.2278 31.9999 30.9332C31.9999 30.6386 31.7612 30.3999 31.4667 30.3999ZM22.1333 29.3332C20.5132 29.3332 19.2 28.0199 19.2 26.3999C19.2017 24.7806 20.514 23.4683 22.1333 23.4666C23.7534 23.4666 25.0666 24.7799 25.0666 26.3999C25.0666 28.0199 23.7534 29.3332 22.1333 29.3332Z" fill="#F26822"/>
</g>
<defs>
<clipPath id="clip0_58_377">
<rect width="32" height="32" fill="white"/>
</clipPath>
</defs>
</svg>
