<svg width="32" height="32" viewBox="0 0 32 32" fill="none" xmlns="http://www.w3.org/2000/svg">
<path d="M5.36587 11.2H28.7675C28.4325 7.04 24.2341 3.73334 19.1109 3.73334H15.0224C9.8976 3.73334 5.7008 7.04 5.36587 11.2ZM15.4667 5.32907C15.4678 5.47043 15.4128 5.60646 15.3137 5.70726C15.2146 5.80807 15.0795 5.8654 14.9381 5.86667C11.8491 5.89334 9.03947 7.4256 7.94614 9.67947C7.91556 9.74251 7.87288 9.7989 7.82051 9.84544C7.76814 9.89197 7.70712 9.92774 7.64093 9.9507C7.57474 9.97365 7.50468 9.98334 7.43474 9.97922C7.36481 9.9751 7.29637 9.95724 7.23334 9.92667C7.1703 9.8961 7.11391 9.85341 7.06737 9.80104C7.02083 9.74868 6.98506 9.68766 6.96211 9.62147C6.93916 9.55528 6.92946 9.48522 6.93358 9.41528C6.93771 9.34534 6.95556 9.27691 6.98614 9.21387C8.27094 6.5632 11.3883 4.82987 14.9275 4.8C15.0687 4.80012 15.2042 4.85558 15.3051 4.95449C15.4059 5.05339 15.4639 5.18787 15.4667 5.32907ZM30.4 12.2667H3.73334C3.59189 12.2667 3.45623 12.3229 3.35621 12.4229C3.25619 12.5229 3.2 12.6586 3.2 12.8C3.2 12.9415 3.25619 13.0771 3.35621 13.1771C3.45623 13.2771 3.59189 13.3333 3.73334 13.3333H30.4C30.5415 13.3333 30.6771 13.2771 30.7771 13.1771C30.8771 13.0771 30.9333 12.9415 30.9333 12.8C30.9333 12.6586 30.8771 12.5229 30.7771 12.4229C30.6771 12.3229 30.5415 12.2667 30.4 12.2667ZM19.8656 17.3333C19.7111 17.7259 19.4646 18.0757 19.1467 18.3531L15.7707 21.3131C15.5475 21.5074 15.2882 21.6558 15.0077 21.7499C14.7271 21.844 14.4308 21.8818 14.1356 21.8613C13.8404 21.8408 13.5521 21.7623 13.2873 21.6304C13.0224 21.4984 12.7862 21.3156 12.592 21.0923C12.3821 20.8515 12.2264 20.5685 12.1354 20.2624C12.0444 19.9563 12.0203 19.6342 12.0645 19.3179C12.1819 18.5728 12.2495 17.8207 12.2667 17.0667C12.2591 16.4531 12.193 15.8416 12.0693 15.2405C12.0217 15.0028 11.8916 14.7895 11.7019 14.6384C11.5094 14.4845 11.2704 14.4004 11.024 14.4C10.9293 14.4001 10.8385 14.4378 10.7715 14.5048C10.7045 14.5718 10.6668 14.6626 10.6667 14.7573V16.5333C10.7519 18.1827 10.3322 19.8188 9.46347 21.2235C9.3248 21.4901 9.17387 21.7781 9.01067 22.1051C8.55643 22.99 8.24058 23.9393 8.07414 24.92L11.1547 28C12.384 26.6869 13.8232 25.5875 15.4133 24.7467C15.5961 24.6547 15.7592 24.5278 15.8933 24.3733C17.3692 22.6619 19.0304 21.1195 20.8464 19.7744C21.1775 19.5328 21.4021 19.1723 21.4731 18.7685C21.737 17.1898 22.3648 15.6942 23.3067 14.4H21.9616C21.2731 14.6837 20.4955 15.7696 19.8656 17.3333ZM6.76747 25.12C6.66808 25.0218 6.53385 24.967 6.39414 24.9675C6.2551 24.9678 6.1215 25.0215 6.0208 25.1173C3.69654 27.3349 2.22134 28.2171 1.39307 28.5669C1.29759 28.6079 1.2163 28.676 1.15938 28.7629C1.10246 28.8498 1.07243 28.9516 1.07307 29.0555V30.9333C1.07307 31.0748 1.12926 31.2104 1.22928 31.3105C1.3293 31.4105 1.46495 31.4667 1.6064 31.4667H9.22667C9.34764 31.4666 9.46499 31.4254 9.55947 31.3499L11.0032 30.1941C11.0617 30.1473 11.1097 30.0887 11.144 30.022C11.1783 29.9554 11.1982 29.8823 11.2024 29.8075C11.2066 29.7327 11.195 29.6578 11.1683 29.5878C11.1416 29.5177 11.1004 29.4541 11.0475 29.4011L6.76747 25.12Z" fill="#F26822"/>
<path d="M20.3115 14.4H19.1675C18.3336 15.1033 17.7756 16.0792 17.5925 17.1546C17.5083 17.656 17.4032 18.1194 17.288 18.5637L18.4432 17.5504C18.6341 17.3853 18.7821 17.1763 18.8741 16.9413C19.2242 16.0274 19.7087 15.1709 20.3115 14.4Z" fill="#F26822"/>
<path d="M17.0667 2.66666C17.6558 2.66666 18.1333 2.1891 18.1333 1.59999C18.1333 1.01089 17.6558 0.533325 17.0667 0.533325C16.4776 0.533325 16 1.01089 16 1.59999C16 2.1891 16.4776 2.66666 17.0667 2.66666Z" fill="#F26822"/>
</svg>
