<svg width="32" height="32" viewBox="0 0 32 32" fill="none" xmlns="http://www.w3.org/2000/svg">
<path d="M23 12.73C23.3044 12.5554 23.5573 12.3034 23.7329 11.9996C23.9085 11.6958 24.0007 11.3509 24 11C24.0007 10.7227 23.9427 10.4484 23.83 10.195C23.6533 10.5294 23.3569 10.7847 23 10.91V12.73ZM8.99999 12.73V9.625C8.99903 9.50137 9.00571 9.3778 9.01999 9.255C8.71237 9.42801 8.45601 9.67936 8.27695 9.9835C8.09788 10.2876 8.00249 10.6338 8.00046 10.9867C7.99843 11.3396 8.08983 11.6868 8.26538 11.993C8.44093 12.2992 8.69438 12.5535 8.99999 12.73ZM22 13.875V11H14.5C13.6492 10.9977 12.8164 10.7552 12.0973 10.3006C11.3782 9.84594 10.802 9.19756 10.435 8.43L10.38 8.31C10.1311 8.70338 9.99929 9.15948 9.99999 9.625V13.875C10.0012 14.756 10.3345 15.6042 10.9334 16.2504C11.5322 16.8966 12.3526 17.2933 13.231 17.3615L13.165 17.825L13.29 17.84L14.495 18.015C15.0378 18.0905 15.5542 18.2963 16 18.615C16.4458 18.2963 16.9622 18.0905 17.505 18.015L18.715 17.84L18.835 17.825L18.769 17.3615C19.6474 17.2933 20.4678 16.8966 21.0666 16.2504C21.6655 15.6042 21.9987 14.756 22 13.875Z" fill="#F26822"/>
<path d="M23 9.49997V7.90997C22.8403 7.97052 22.6708 8.00104 22.5 7.99997H11.34C11.6236 8.59808 12.0711 9.10347 12.6304 9.45748C13.1898 9.81149 13.838 9.9996 14.5 9.99997H22.5C22.6325 9.99958 22.7594 9.94677 22.8531 9.85309C22.9468 9.75941 22.9996 9.63246 23 9.49997ZM18.8585 18.83L17.6465 19.003C17.3197 19.0517 17.0058 19.1649 16.7231 19.3361C16.4404 19.5072 16.1946 19.7329 16 20C15.8054 19.733 15.5597 19.5073 15.2771 19.3362C14.9945 19.165 14.6807 19.0518 14.354 19.003L13.1415 18.8295C12.9999 18.8109 12.8559 18.8225 12.7192 18.8636C12.5824 18.9047 12.4559 18.9744 12.348 19.068C12.2401 19.1616 12.1533 19.277 12.0933 19.4067C12.0334 19.5363 12.0015 19.6772 12 19.82V21.5C12 21.6203 12.0434 21.7366 12.1222 21.8275C12.201 21.9184 12.3099 21.9779 12.429 21.995L15.929 22.495C15.9761 22.5017 16.0239 22.5017 16.071 22.495L19.571 21.995C19.6901 21.9779 19.799 21.9184 19.8778 21.8275C19.9566 21.7366 20 21.6203 20 21.5V19.82C19.9967 19.6777 19.9637 19.5378 19.9031 19.4091C19.8425 19.2803 19.7557 19.1657 19.6482 19.0725C19.5408 18.9793 19.415 18.9095 19.279 18.8678C19.143 18.826 18.9998 18.8131 18.8585 18.83Z" fill="#F26822"/>
<path d="M27.94 29.86C27.7295 27.8925 26.9659 26.025 25.7377 24.4737C24.5094 22.9225 22.8667 21.751 21 21.095V21.5C20.9979 21.8608 20.8666 22.2089 20.63 22.4813C20.3933 22.7537 20.067 22.9324 19.71 22.985L16.21 23.485C16.069 23.5044 15.926 23.5044 15.785 23.485L14.794 23.343L12.6625 24.676L16.238 31.5H26.445C26.6535 31.4987 26.8594 31.4542 27.0498 31.3694C27.2403 31.2846 27.4111 31.1613 27.5515 31.0073C27.692 30.8532 27.799 30.6717 27.8659 30.4743C27.9327 30.2768 27.958 30.0677 27.94 29.86ZM15 26C14.9011 26 14.8044 25.9706 14.7222 25.9157C14.64 25.8608 14.5759 25.7827 14.5381 25.6913C14.5002 25.5999 14.4903 25.4994 14.5096 25.4024C14.5289 25.3054 14.5765 25.2163 14.6465 25.1464C14.7164 25.0765 14.8055 25.0289 14.9025 25.0096C14.9995 24.9903 15.1 25.0002 15.1913 25.038C15.2827 25.0759 15.3608 25.14 15.4157 25.2222C15.4707 25.3044 15.5 25.4011 15.5 25.5C15.5 25.6326 15.4473 25.7598 15.3536 25.8535C15.2598 25.9473 15.1326 26 15 26ZM16.5 29C16.4011 29 16.3044 28.9706 16.2222 28.9157C16.14 28.8608 16.0759 28.7827 16.0381 28.6913C16.0002 28.5999 15.9903 28.4994 16.0096 28.4024C16.0289 28.3054 16.0765 28.2163 16.1465 28.1464C16.2164 28.0765 16.3055 28.0289 16.4025 28.0096C16.4995 27.9903 16.6 28.0002 16.6913 28.038C16.7827 28.0759 16.8608 28.14 16.9157 28.2222C16.9707 28.3044 17 28.4011 17 28.5C17 28.6326 16.9473 28.7598 16.8536 28.8535C16.7598 28.9473 16.6326 29 16.5 29ZM23 28C22.9997 28.2651 22.8943 28.5193 22.7068 28.7068C22.5193 28.8943 22.2651 28.9997 22 29H20C19.7349 28.9997 19.4807 28.8943 19.2932 28.7068C19.1057 28.5193 19.0003 28.2651 19 28V27C19.0003 26.7348 19.1057 26.4806 19.2932 26.2932C19.4807 26.1057 19.7349 26.0002 20 26H22C22.2651 26.0002 22.5193 26.1057 22.7068 26.2932C22.8943 26.4806 22.9997 26.7348 23 27V28Z" fill="#F26822"/>
<path d="M20 27H22.0005V28H20V27ZM11.735 24.076L13.259 23.1235L12.29 22.985C11.933 22.9324 11.6067 22.7538 11.37 22.4814C11.1334 22.209 11.0021 21.8608 11 21.5V21.095C9.1366 21.7564 7.49724 22.9295 6.2698 24.4797C5.04237 26.0299 4.27651 27.8946 4.06001 29.86C4.04445 30.0672 4.07137 30.2754 4.13912 30.4718C4.20686 30.6682 4.31401 30.8487 4.45398 31.0023C4.59395 31.1558 4.7638 31.2792 4.95313 31.3648C5.14246 31.4503 5.34727 31.4964 5.55501 31.5H15.1085L11.56 24.737C11.4997 24.6252 11.4842 24.4947 11.5167 24.3719C11.5492 24.2491 11.6273 24.1433 11.735 24.076ZM23 2C22.9988 1.60254 22.8404 1.2217 22.5594 0.940651C22.2783 0.659603 21.8975 0.501187 21.5 0.5H10.5C10.1025 0.501187 9.72171 0.659603 9.44066 0.940651C9.15961 1.2217 9.00119 1.60254 9.00001 2V3.5H23V2ZM9.50001 7H22.5C22.6325 6.9996 22.7594 6.9468 22.8531 6.85312C22.9468 6.75943 22.9996 6.63249 23 6.5V4.5H9.00001V6.5C9.0004 6.63249 9.05321 6.75943 9.14689 6.85312C9.24057 6.9468 9.36752 6.9996 9.50001 7Z" fill="#F26822"/>
</svg>
