<svg width="32" height="32" viewBox="0 0 32 32" fill="none" xmlns="http://www.w3.org/2000/svg">
<path d="M24 19H27.465C27.6296 19 27.7916 19.0406 27.9368 19.1182C28.0819 19.1958 28.2057 19.3081 28.297 19.445L30 22H24V19Z" fill="#F26822"/>
<path d="M13 30C14.1046 30 15 29.1046 15 28C15 26.8954 14.1046 26 13 26C11.8954 26 11 26.8954 11 28C11 29.1046 11.8954 30 13 30Z" fill="#F26822"/>
<path d="M23 25.78V18C23 17.7348 22.8946 17.4804 22.7071 17.2929C22.5196 17.1054 22.2652 17 22 17H8C7.73478 17 7.48043 17.1054 7.29289 17.2929C7.10536 17.4804 7 17.7348 7 18V27C7 27.2652 7.10536 27.5196 7.29289 27.7071C7.48043 27.8946 7.73478 28 8 28H10C10 26.346 11.346 25 13 25C14.654 25 16 26.346 16 28H22C22 27.117 22.39 26.33 23 25.78ZM24 23V25.184C24.3203 25.0655 24.6586 25.0033 25 25C26.654 25 28 26.346 28 28H29C29.2652 28 29.5196 27.8946 29.7071 27.7071C29.8946 27.5196 30 27.2652 30 27V23H24Z" fill="#F26822"/>
<path d="M25 30C26.1046 30 27 29.1046 27 28C27 26.8954 26.1046 26 25 26C23.8954 26 23 26.8954 23 28C23 29.1046 23.8954 30 25 30Z" fill="#F26822"/>
<path d="M7 2H12V4H7V2Z" fill="#F26822"/>
<path d="M16 2H13V4C13 4.26522 12.8946 4.51957 12.7071 4.70711C12.5196 4.89464 12.2652 5 12 5H7C6.73478 5 6.48043 4.89464 6.29289 4.70711C6.10536 4.51957 6 4.26522 6 4V2H3C2.73478 2 2.48043 2.10536 2.29289 2.29289C2.10536 2.48043 2 2.73478 2 3V22C2 22.2652 2.10536 22.5196 2.29289 22.7071C2.48043 22.8946 2.73478 23 3 23H6V18C6 17.4696 6.21071 16.9609 6.58579 16.5858C6.96086 16.2107 7.46957 16 8 16H17V3C17 2.73478 16.8946 2.48043 16.7071 2.29289C16.5196 2.10536 16.2652 2 16 2ZM6.854 12.854L4.854 14.854C4.80769 14.9008 4.75256 14.938 4.69179 14.9633C4.63103 14.9887 4.56584 15.0017 4.5 15.0017C4.43416 15.0017 4.36897 14.9887 4.30821 14.9633C4.24744 14.938 4.19231 14.9008 4.146 14.854L3.146 13.854C3.09951 13.8075 3.06264 13.7523 3.03748 13.6916C3.01232 13.6308 2.99937 13.5657 2.99937 13.5C2.99937 13.4343 3.01232 13.3692 3.03748 13.3084C3.06264 13.2477 3.09951 13.1925 3.146 13.146C3.23989 13.0521 3.36722 12.9994 3.5 12.9994C3.56574 12.9994 3.63084 13.0123 3.69158 13.0375C3.75232 13.0626 3.80751 13.0995 3.854 13.146L4.5 13.793L6.146 12.146C6.19249 12.0995 6.24768 12.0626 6.30842 12.0375C6.36916 12.0123 6.43426 11.9994 6.5 11.9994C6.56574 11.9994 6.63084 12.0123 6.69158 12.0375C6.75232 12.0626 6.80751 12.0995 6.854 12.146C6.90049 12.1925 6.93736 12.2477 6.96252 12.3084C6.98768 12.3692 7.00063 12.4343 7.00063 12.5C7.00063 12.5657 6.98768 12.6308 6.96252 12.6916C6.93736 12.7523 6.90049 12.8075 6.854 12.854ZM6.854 7.854L4.854 9.854C4.80769 9.9008 4.75256 9.93796 4.69179 9.96332C4.63103 9.98867 4.56584 10.0017 4.5 10.0017C4.43416 10.0017 4.36897 9.98867 4.30821 9.96332C4.24744 9.93796 4.19231 9.9008 4.146 9.854L3.146 8.854C3.09951 8.80751 3.06264 8.75232 3.03748 8.69158C3.01232 8.63084 2.99937 8.56574 2.99937 8.5C2.99937 8.43426 3.01232 8.36916 3.03748 8.30842C3.06264 8.24768 3.09951 8.19249 3.146 8.146C3.23989 8.05211 3.36722 7.99937 3.5 7.99937C3.56574 7.99937 3.63084 8.01232 3.69158 8.03748C3.75232 8.06264 3.80751 8.09951 3.854 8.146L4.5 8.793L6.146 7.146C6.19249 7.09951 6.24768 7.06264 6.30842 7.03748C6.36916 7.01232 6.43426 6.99937 6.5 6.99937C6.56574 6.99937 6.63084 7.01232 6.69158 7.03748C6.75232 7.06264 6.80751 7.09951 6.854 7.146C6.90049 7.19249 6.93736 7.24768 6.96252 7.30842C6.98768 7.36916 7.00063 7.43426 7.00063 7.5C7.00063 7.56574 6.98768 7.63084 6.96252 7.69158C6.93736 7.75232 6.90049 7.80751 6.854 7.854ZM23.277 9.084C23.195 9.02927 23.0986 9.00006 23 9.00006C22.9014 9.00006 22.805 9.02927 22.723 9.084L22 9.566V7H24V9.566L23.277 9.084Z" fill="#F26822"/>
<path d="M19 7H21V10.5C21 10.5904 21.0246 10.6792 21.0711 10.7568C21.1176 10.8343 21.1843 10.8979 21.264 10.9405C21.3437 10.9832 21.4336 11.0035 21.5239 10.9992C21.6142 10.9948 21.7017 10.9661 21.777 10.916L23 10.1L24.223 10.915C24.2981 10.9658 24.3856 10.9951 24.4761 10.9998C24.5666 11.0045 24.6567 10.9845 24.7366 10.9418C24.8166 10.8991 24.8833 10.8354 24.9298 10.7575C24.9762 10.6797 25.0005 10.5906 25 10.5V7H27V15H20C19.7348 15 19.4804 14.8946 19.2929 14.7071C19.1054 14.5196 19 14.2652 19 14V7ZM26 4L24 6H22L24 4H26ZM29.3 4L27.3 6H25L27 4H29.3ZM21.007 4.293C21.1945 4.10545 21.4488 4.00006 21.714 4H23L21 6H19.3L21.007 4.293ZM30 4.7L28 6.7V14.7L29.707 12.993C29.8946 12.8055 29.9999 12.5512 30 12.286V4.7Z" fill="#F26822"/>
</svg>
