<svg width="32" height="32" viewBox="0 0 32 32" fill="none" xmlns="http://www.w3.org/2000/svg">
<path d="M8.58182 30.0606C8.58182 30.8364 9.21212 31.4667 9.98788 31.4667C10.7636 31.4667 11.3939 30.8364 11.3939 30.0606V23.7091C10.4242 23.6121 9.50303 23.4182 8.58182 23.0788V30.0606ZM13.1879 30.0606C13.1879 30.8364 13.8182 31.4667 14.5939 31.4667C15.3697 31.4667 16 30.8364 16 30.0606V23.0788C15.0788 23.4182 14.1576 23.6606 13.1879 23.7091V30.0606Z" fill="#F26822"/>
<path d="M24.2909 14.4C25.5762 14.4 26.6182 13.3581 26.6182 12.0728C26.6182 10.7874 25.5762 9.74548 24.2909 9.74548C23.0056 9.74548 21.9636 10.7874 21.9636 12.0728C21.9636 13.3581 23.0056 14.4 24.2909 14.4Z" fill="#F26822"/>
<path d="M30.1576 14.9333C30.2545 14.5455 30.0121 14.1576 29.6242 14.1091C29.2363 14.0121 28.8485 14.2545 28.8 14.6424C28.3636 16.4364 27.7818 16.3879 27.0545 15.8061C24.9212 14.303 22.8363 14.5455 21.5757 15.8061C21.5273 15.8545 20.5091 17.1152 19.4909 16.6303C19.3454 17.1152 18.9576 17.503 18.4242 17.6C19.4909 18.3758 20.703 18.2788 21.7212 17.5515L22.206 23.7576V23.8545C22.1576 24.3394 21.8666 28.6545 22.206 30.5939C22.303 31.1758 22.7879 31.5636 23.3697 31.5636C24.097 31.5636 24.6788 30.8848 24.5333 30.1576C24.3394 29.0424 24.3879 26.5212 24.4848 24.9212L25.4545 27.3455C25.5515 27.6364 25.7939 27.8303 26.0363 27.9758L28.2182 28.9455C28.8 29.2364 29.4788 28.9455 29.7697 28.3636C30.0121 27.7818 29.7697 27.103 29.1879 26.8121L27.4424 26.0364L26.5212 23.6606L27.006 17.3091C28.1697 17.8909 29.5273 17.4061 30.1576 14.9333Z" fill="#F26822"/>
<path d="M19.2485 16.1455C19.103 12.1697 18.0364 10.2303 16.5333 8.19395C16.097 7.66062 16.097 7.56365 15.8546 7.4182C13.0909 5.72123 10.1333 6.40001 7.51516 8.24244C8.53334 8.72729 9.11516 9.74547 9.11516 10.7637C9.06667 14.9333 9.21213 15.1758 8.9697 15.903L9.55152 16.097C10.4242 16.3879 10.7636 17.4061 10.2788 18.1818L8.67879 20.7515C8.3394 21.3333 7.66061 21.5273 7.07879 21.3333L6.98182 21.8182C10.4727 23.903 14.3515 23.7576 17.6 21.8182L15.8546 12.9455V10.4727C16.9697 12.1697 17.3576 14.2061 17.4061 16.2424C17.4061 16.7273 17.7939 17.1637 18.3273 17.1637H18.3758C18.9091 17.1152 19.297 16.6303 19.2485 16.1455ZM12.2667 5.96365C13.7697 5.96365 15.0303 4.75153 15.0303 3.20001C15.0303 1.69698 13.8182 0.484863 12.2667 0.484863C10.7636 0.484863 9.50304 1.69698 9.50304 3.2485C9.55152 4.75153 10.7636 5.96365 12.2667 5.96365ZM3.49091 11.8788L2.76364 12.7515L3.49091 13.0424V11.8788ZM6.30304 8.00002C7.51516 8.00002 8.53334 7.03032 8.53334 5.76971C8.53334 4.55759 7.56364 3.53941 6.30304 3.53941C5.04243 3.53941 4.07273 4.50911 4.07273 5.76971C4.07273 7.03032 5.09091 8.00002 6.30304 8.00002Z" fill="#F26822"/>
<path d="M8.29089 20.4606L9.89089 17.8909C10.2303 17.4061 9.98786 16.6788 9.40604 16.5333C9.35756 16.5333 8.29089 16.1455 8.33938 16.194C8.82422 15.4182 8.5818 14.6909 8.63028 13.4788V10.8121C8.63028 9.50304 7.56362 8.48486 6.30301 8.48486C4.99392 8.48486 3.97574 9.55153 3.97574 10.8121V13.2849C4.02422 13.2849 6.30301 14.2546 6.15756 14.2061C6.83634 14.497 7.12725 15.1758 6.9818 15.8061C6.83634 16.4849 6.25453 16.9212 5.62422 16.9212C5.18786 16.9212 4.99392 16.7758 4.50907 16.5818C5.13938 17.3576 5.96362 17.4061 7.03028 17.794C7.07877 17.794 7.70907 18.0364 7.66059 17.9879C7.6121 18.0364 6.59392 19.6364 6.69089 19.5394C6.39998 19.9758 6.54544 20.5576 6.9818 20.8485C7.41816 21.0424 7.99998 20.897 8.29089 20.4606Z" fill="#F26822"/>
<path d="M5.28484 16.2909C5.86666 16.5333 6.44848 16.097 6.54545 15.5637C6.59393 15.1273 6.35151 14.6909 5.96363 14.5455C5.91514 14.5455 3.05454 13.3818 3.10302 13.4303C2.61817 13.2364 1.98787 13.4303 1.84242 14.1091C1.79393 14.5455 1.98787 14.9818 2.42423 15.1758C5.18787 16.2424 4.79999 16.1455 5.28484 16.2909Z" fill="#F26822"/>
</svg>
