<svg width="24" height="24" viewBox="0 0 24 24" fill="none" xmlns="http://www.w3.org/2000/svg">
<g clip-path="url(#clip0_43_282)">
<path d="M0.566625 8.34782C0.199031 9.49944 -4.68667e-05 10.7263 8.276e-09 11.9998C-4.68667e-05 13.2734 0.199078 14.5004 0.566672 15.652L12 16.1738L23.4333 15.6521C23.8009 14.5004 24 13.2734 24 11.9999C24 10.7263 23.8009 9.49944 23.4333 8.34777L12 7.82605L0.566625 8.34782Z" fill="#F0F0F0"/>
<path d="M23.4333 8.34789L12 7.82617L0.566576 8.34789C0.457639 8.68933 0.363842 9.03747 0.285233 9.39138H23.7145C23.636 9.03742 23.5422 8.68923 23.4333 8.34789Z" fill="#D80027"/>
<path d="M0.28537 14.6086C0.363885 14.9625 0.457682 15.3106 0.56662 15.6521L0.567745 15.6521L11.9999 16.1738L23.4332 15.6521C23.5422 15.3107 23.636 14.9625 23.7145 14.6086H0.28537Z" fill="#D80027"/>
<path d="M11.9999 23.9999C17.3538 23.9999 21.888 20.4935 23.4333 15.6521H0.566666C2.1119 20.4935 6.64621 23.9999 11.9999 23.9999Z" fill="#6DA544"/>
<path d="M11.9999 4.69973e-10C6.64617 4.68755e-05 2.11195 3.50644 0.56662 8.34783L23.4332 8.34787C21.8881 3.50639 17.3538 -4.68745e-05 11.9999 4.69973e-10Z" fill="#338AF3"/>
<path d="M5.48371 4.95655C5.48371 3.83262 6.2736 2.89372 7.32843 2.66337C7.16634 2.62794 6.9981 2.60876 6.82532 2.60876C5.52866 2.60876 4.47749 3.65989 4.47749 4.95659C4.47749 6.2533 5.52857 7.30442 6.82532 7.30442C6.9981 7.30442 7.16629 7.2852 7.32843 7.24981C6.27365 7.01937 5.48371 6.08047 5.48371 4.95655Z" fill="#F0F0F0"/>
<path d="M8.71612 6.02368L8.87503 6.51282H9.38934L8.97328 6.81517L9.13218 7.30431L8.71612 7.00201L8.29996 7.30431L8.45892 6.81517L8.04281 6.51282H8.55712L8.71612 6.02368Z" fill="#F0F0F0"/>
<path d="M10.3577 6.02368L10.5166 6.51282H11.0309L10.6148 6.81517L10.7738 7.30431L10.3577 7.00201L9.94157 7.30431L10.1005 6.81517L9.68446 6.51282H10.1987L10.3577 6.02368Z" fill="#F0F0F0"/>
<path d="M11.9993 6.02368L12.1582 6.51282H12.6726L12.2565 6.81517L12.4154 7.30431L11.9993 7.00201L11.5831 7.30431L11.7421 6.81517L11.326 6.51282H11.8403L11.9993 6.02368Z" fill="#F0F0F0"/>
<path d="M13.6409 6.02368L13.7999 6.51282H14.3141L13.8981 6.81517L14.057 7.30431L13.6409 7.00201L13.2247 7.30431L13.3837 6.81517L12.9676 6.51282H13.4819L13.6409 6.02368Z" fill="#F0F0F0"/>
<path d="M15.2825 6.02368L15.4414 6.51282H15.9557L15.5397 6.81517L15.6986 7.30431L15.2825 7.00201L14.8664 7.30431L15.0253 6.81517L14.6092 6.51282H15.1235L15.2825 6.02368Z" fill="#F0F0F0"/>
<path d="M10.3577 4.31616L10.5166 4.80526H11.0309L10.6148 5.10765L10.7738 5.59674L10.3577 5.29444L9.94157 5.59674L10.1005 5.10765L9.68446 4.80526H10.1987L10.3577 4.31616Z" fill="#F0F0F0"/>
<path d="M11.9993 4.31616L12.1582 4.80526H12.6726L12.2565 5.10765L12.4154 5.59674L11.9993 5.29444L11.5831 5.59674L11.7421 5.10765L11.326 4.80526H11.8403L11.9993 4.31616Z" fill="#F0F0F0"/>
<path d="M13.6409 4.31616L13.7999 4.80526H14.3141L13.8981 5.10765L14.057 5.59674L13.6409 5.29444L13.2247 5.59674L13.3837 5.10765L12.9676 4.80526H13.4819L13.6409 4.31616Z" fill="#F0F0F0"/>
<path d="M15.2825 4.31616L15.4414 4.80526H15.9557L15.5397 5.10765L15.6986 5.59674L15.2825 5.29444L14.8664 5.59674L15.0253 5.10765L14.6092 4.80526H15.1235L15.2825 4.31616Z" fill="#F0F0F0"/>
<path d="M11.9993 2.60864L12.1582 3.09783H12.6726L12.2565 3.40013L12.4154 3.88931L11.9993 3.58702L11.5831 3.88931L11.7421 3.40013L11.326 3.09783H11.8403L11.9993 2.60864Z" fill="#F0F0F0"/>
<path d="M13.6409 2.60864L13.7999 3.09783H14.3141L13.8981 3.40013L14.057 3.88931L13.6409 3.58702L13.2247 3.88931L13.3837 3.40013L12.9676 3.09783H13.4819L13.6409 2.60864Z" fill="#F0F0F0"/>
<path d="M15.2825 2.60864L15.4414 3.09783H15.9557L15.5397 3.40013L15.6986 3.88931L15.2825 3.58702L14.8664 3.88931L15.0253 3.40013L14.6092 3.09783H15.1235L15.2825 2.60864Z" fill="#F0F0F0"/>
</g>
<defs>
<clipPath id="clip0_43_282">
<rect width="24" height="24" fill="white"/>
</clipPath>
</defs>
</svg>
