<svg width="32" height="32" viewBox="0 0 32 32" fill="none" xmlns="http://www.w3.org/2000/svg">
<g clip-path="url(#clip0_47_1236)">
<path d="M20.6515 9.44401C18.936 10.8265 18.219 12.8875 18.885 14.4365C18.552 14.8465 18.232 15.2815 17.95 15.7295C17.743 16.053 17.558 16.4115 17.3675 16.7615C17.1205 14.2895 16.573 12.1285 15.6845 10.2505C15.646 10.161 15.5945 10.0715 15.5435 9.98201C15.582 9.93051 15.6335 9.89201 15.6585 9.84101C16.9265 7.97201 16.44 5.09201 14.4555 2.91601C9.80901 -2.16649 2.43551 0.534512 1.66751 2.50601C1.47551 3.00501 3.69001 2.86451 4.88051 6.43601C6.81351 12.209 10.7945 12.9515 13.521 11.633C12.4585 9.43151 10.897 7.49801 8.88701 5.86001C8.82113 5.80813 8.76618 5.74371 8.72535 5.67046C8.68452 5.59722 8.65861 5.51661 8.64913 5.43329C8.63964 5.34997 8.64677 5.2656 8.67009 5.18505C8.69342 5.1045 8.73247 5.02937 8.78501 4.96401C8.83693 4.89821 8.90137 4.84332 8.97459 4.80252C9.04782 4.76172 9.12839 4.73581 9.21168 4.72628C9.29496 4.71676 9.3793 4.7238 9.45985 4.74701C9.5404 4.77022 9.61556 4.80913 9.68101 4.86151C11.8185 6.58951 13.47 8.63751 14.6095 10.9545C15.723 13.387 16.248 16.2925 16.248 19.8515V25.126C11.72 25.344 8.05001 27.8195 7.40651 31C7.30151 31.517 7.71501 32 8.24301 32H25.548C26.076 32 26.489 31.517 26.3845 31C25.7395 27.816 22.062 25.339 17.528 25.125V19.852C17.528 19.722 17.514 19.607 17.5125 19.4785C17.931 18.361 18.4465 17.328 19.0255 16.4215C19.2175 16.1265 19.4095 15.8325 19.6275 15.5505C20.861 13.9925 22.3656 12.67 24.069 11.6465C24.364 11.4545 24.7605 11.5565 24.9525 11.8515C25.1315 12.1585 25.0425 12.5555 24.735 12.7345C23.1657 13.6847 21.7785 14.9072 20.6385 16.3445C22.5585 17.4325 25.4135 17.138 27.4485 13.2465C28.767 10.6865 30.4185 11.0575 30.3415 10.661C29.9835 9.08601 24.7475 6.16701 20.6515 9.44401Z" fill="#F26822"/>
</g>
<defs>
<clipPath id="clip0_47_1236">
<rect width="32" height="32" fill="white"/>
</clipPath>
</defs>
</svg>
