<svg width="32" height="32" viewBox="0 0 32 32" fill="none" xmlns="http://www.w3.org/2000/svg">
<path d="M24.752 10.025C24.752 9.94203 24.7416 9.85938 24.721 9.779C24.3993 8.5273 23.8109 7.35991 22.996 6.35677C22.1812 5.35363 21.1592 4.53843 20 3.967V6C20 6.26522 19.8947 6.51957 19.7071 6.70711C19.5196 6.89464 19.2652 7 19 7C18.7348 7 18.4804 6.89464 18.2929 6.70711C18.1054 6.51957 18 6.26522 18 6V3C18 2.73478 17.8947 2.48043 17.7071 2.29289C17.5196 2.10536 17.2652 2 17 2H15C14.7348 2 14.4804 2.10536 14.2929 2.29289C14.1054 2.48043 14 2.73478 14 3V6C14 6.26522 13.8947 6.51957 13.7071 6.70711C13.5196 6.89464 13.2652 7 13 7C12.7348 7 12.4804 6.89464 12.2929 6.70711C12.1054 6.51957 12 6.26522 12 6V3.967C10.8407 4.53848 9.81857 5.35382 9.00372 6.35715C8.18887 7.36048 7.60053 8.52809 7.27901 9.78C7.25885 9.86035 7.25076 9.94326 7.25501 10.026C6.88409 10.0872 6.54979 10.2858 6.31856 10.5822C6.08732 10.8787 5.97608 11.2512 6.00695 11.6259C6.03782 12.0006 6.20853 12.3499 6.48515 12.6045C6.76178 12.8591 7.12407 13.0003 7.50001 13H24.5C24.8777 13.0037 25.2428 12.8645 25.5222 12.6103C25.8015 12.3562 25.9745 12.0058 26.0064 11.6294C26.0382 11.2531 25.9267 10.8786 25.6941 10.581C25.4614 10.2835 25.1249 10.0849 24.752 10.025ZM23 15H9.00001V16C9.00001 17.91 9.77001 19.64 11.013 20.904C11.01 20.937 11 20.967 11 21V22.684L15.975 24.894L21 22.383V21C21 20.967 20.99 20.937 20.987 20.904C22.2773 19.598 23.0006 17.8359 23 16V15Z" fill="#F26822"/>
<path d="M10 30H22V24.118L16.447 26.895C16.315 26.9609 16.1701 26.9968 16.0226 27C15.8752 27.0033 15.7288 26.9739 15.594 26.914L10 24.427V30ZM8 24.112C5.6145 24.8406 3.55417 26.3714 2.168 28.445C2.06752 28.5956 2.00981 28.7707 2.00103 28.9515C1.99224 29.1323 2.03271 29.3121 2.11812 29.4718C2.20353 29.6314 2.33068 29.7648 2.48599 29.8579C2.6413 29.9509 2.81895 30 3 30H8V24.112ZM29.832 28.445C28.4458 26.3714 26.3855 24.8406 24 24.112V30H29C29.181 30 29.3587 29.9509 29.514 29.8579C29.6693 29.7648 29.7965 29.6314 29.8819 29.4718C29.9673 29.3121 30.0078 29.1323 29.999 28.9515C29.9902 28.7707 29.9325 28.5956 29.832 28.445Z" fill="#F26822"/>
</svg>
