<svg width="32" height="32" viewBox="0 0 32 32" fill="none" xmlns="http://www.w3.org/2000/svg">
<path d="M15.1758 12.7031L18.0364 11.7334L19.297 9.45458C19.3455 9.4061 19.3455 9.35761 19.3939 9.30913L15.0788 10.8122L12.0727 8.4364L11.8788 10.6667L14.303 12.6061C14.5939 12.7516 14.9333 12.8 15.1758 12.7031Z" fill="#F26822"/>
<path d="M18.3273 16L19.5879 13.7213V9.89095L18.7151 11.4909L17.0182 14.5455C14.1091 14.0606 14.206 14.0122 13.9151 14.0606C14.3515 14.594 14.2545 15.3697 13.7697 15.8546C13.8666 15.9031 13.6727 15.8546 17.3576 16.4849C17.7454 16.5334 18.1333 16.3879 18.3273 16ZM19.7333 30.1091C19.7333 30.8849 20.3636 31.5152 21.1394 31.5152C21.9151 31.5152 22.5454 30.8849 22.5454 30.1091V24.3394C21.5757 24.2425 20.6545 24.0485 19.7818 23.6606V30.1091H19.7333ZM24.1454 30.1091C24.1454 30.8849 24.7757 31.5152 25.5515 31.5152C26.3273 31.5152 26.9576 30.8849 26.9576 30.1091V23.6606C26.0363 24 25.1151 24.2425 24.1939 24.3394V30.1091H24.1454ZM22.1091 19.6364C21.7697 19.6364 21.4788 19.4909 21.1879 19.297C20.8 19.4909 20.4606 19.3455 20.3151 19.3455L19.3454 22.9819C22.4 24.3394 25.4545 24.1455 28.2182 22.497L27.3939 18.2303C25.9394 19.1031 23.5151 19.6364 22.1091 19.6364ZM23.3212 7.95155C24.7273 7.95155 25.8424 6.8364 25.8424 5.43034C25.8424 4.02428 24.7273 2.90913 23.3212 2.90913C21.9151 2.90913 20.8 4.02428 20.8 5.43034C20.8 6.8364 21.9151 7.95155 23.3212 7.95155ZM10.6182 20.2667C10.7151 20.1213 10.6666 20.2667 10.9576 16.2909C8.72725 16.2425 5.57574 15.7576 3.7818 13.6243L4.26665 20.1697C4.26665 20.2667 4.36362 20.3637 4.46059 20.4122L4.4121 20.897L3.87877 29.9637C3.83028 30.7394 4.4121 31.3697 5.18786 31.4182C6.10907 31.4182 6.64241 30.7879 6.64241 30.1091C6.69089 29.0909 6.39998 33.697 7.22422 20.3637H7.80604C8.43635 33.6485 8.24241 29.0909 8.29089 30.0606C8.33938 30.7879 8.92119 31.3697 9.69695 31.3697C10.4727 31.3697 11.103 30.6909 11.103 29.9152C11.006 27.9758 11.3454 35.0546 10.6182 20.2667ZM7.51513 6.06064C9.01816 6.06064 10.3273 4.80004 10.3273 3.24852C10.3273 1.69701 9.06665 0.436401 7.51513 0.436401C5.96362 0.436401 4.70301 1.69701 4.70301 3.24852C4.70301 4.84852 5.96362 6.06064 7.51513 6.06064Z" fill="#F26822"/>
<path d="M19.9757 18.8606C20.0242 18.8606 20.7515 19.0061 20.897 18.9576C20.8 18.7636 20.7515 18.5697 20.703 18.3758V18.0364L20.4606 17.9879C20.4121 17.9879 18.1818 17.6 18.2303 17.6C17.9879 17.5515 17.7454 17.7455 17.697 17.9879C17.6485 18.2303 17.8424 18.4727 18.0848 18.5212C18.1333 18.5212 19.0545 18.6667 19.0545 18.6667C19.0545 18.7152 17.8909 23.0303 17.9394 22.7879L16 30.0121C15.9515 30.2546 16.097 30.497 16.3394 30.5939C16.6303 30.6424 16.8727 30.497 16.9212 30.2546C17.0666 29.7697 20.1212 18.2788 19.9757 18.8606Z" fill="#F26822"/>
<path d="M26.3273 9.16373C24.1939 8.09706 22.1091 8.19403 20.0727 9.30918V14.3516L19.4909 17.3577L20.9454 17.6001C21.1394 17.2122 21.5757 16.9213 22.0606 16.8728C23.4667 16.7758 26.2788 16.3395 26.7636 14.9819L26.6182 14.3516V12.5092C28.4606 16.0001 26.0848 17.0668 22.0606 17.3092C21.5273 17.3577 21.0424 17.891 21.2364 18.4728C21.4303 19.2001 22.1576 19.1516 22.206 19.1516C33.9879 18.3274 27.297 9.45464 26.3273 9.16373ZM12.7515 13.9637C9.5515 14.0607 5.33332 13.6243 4.79999 10.4728C6.01211 11.0062 5.33332 13.3819 11.2 13.5274C11.2485 12.9455 11.0545 15.5637 11.6364 8.04858C8.96968 6.10918 6.06059 5.86676 3.44241 8.00009C3.1515 8.14555 3.00605 8.72736 3.00605 9.01827C2.23029 14.3031 7.41817 16.0001 12.8485 15.8062C13.2848 15.8062 13.7697 15.4183 13.7212 14.8365C13.6727 14.3031 13.2364 13.9637 12.7515 13.9637Z" fill="#F26822"/>
</svg>
