<svg width="32" height="32" viewBox="0 0 32 32" fill="none" xmlns="http://www.w3.org/2000/svg">
<path d="M24.0456 2.76188C23.8425 2.28563 23.3975 1.98688 22.9144 1.94813C22.9119 1.94813 22.9087 1.9475 22.9056 1.9475C22.6987 1.93188 22.4856 1.96438 22.2812 2.05125C21.8762 2.22313 21.5994 2.57063 21.5019 2.9675C21.4344 3.24063 21.4512 3.53625 21.57 3.815L22.195 5.16375L26.8844 15.2819L27.9556 14.5081L27.9975 14.4681L28.0644 14.43L28.4637 14.1413L24.0456 2.76188ZM23.1506 3.60375C23.0565 3.69711 22.9294 3.74965 22.7969 3.75C22.665 3.75 22.5362 3.69688 22.4431 3.60375C22.35 3.51063 22.2969 3.38188 22.2969 3.25C22.2969 3.11875 22.35 2.98938 22.4431 2.89625C22.5362 2.80313 22.665 2.75 22.7969 2.75C22.9281 2.75 23.0575 2.80313 23.1506 2.89625C23.2437 2.98938 23.2969 3.11813 23.2969 3.25C23.2969 3.38188 23.2437 3.51063 23.1506 3.60375ZM29.7925 17.8813L27.1531 19.6894C27.0112 19.7869 26.7769 19.7906 26.6319 19.6988L24.6844 18.4619C24.5394 18.37 24.535 18.2119 24.6744 18.1113L25.18 17.7456L27.3125 16.2056L28.5994 15.2769C28.6012 15.275 28.6031 15.2744 28.605 15.2731L28.8381 15.1044L28.84 15.1031L28.9706 15.3844C28.9712 15.385 28.9719 15.3856 28.9719 15.3863L29.9187 17.4213C29.9912 17.5769 29.9344 17.7838 29.7925 17.8813ZM20.3837 24.1644H4.58312C3.12875 24.1644 1.94937 25.3438 1.94937 26.7981C1.94937 28.2525 3.12875 29.4313 4.58312 29.4313H20.3837C21.8381 29.4313 23.0169 28.2525 23.0169 26.7981C23.0169 25.3438 21.8381 24.1644 20.3837 24.1644ZM4.92625 28.2294C4.13562 28.2294 3.495 27.5888 3.495 26.7981C3.495 26.0075 4.13562 25.3663 4.92625 25.3663C5.71687 25.3663 6.35812 26.0075 6.35812 26.7981C6.35812 27.5888 5.71687 28.2294 4.92625 28.2294ZM9.955 28.2294C9.16437 28.2294 8.52375 27.5888 8.52375 26.7981C8.52375 26.0075 9.16437 25.3663 9.955 25.3663C10.7456 25.3663 11.3862 26.0075 11.3862 26.7981C11.3862 27.5888 10.7456 28.2294 9.955 28.2294ZM14.9837 28.2294C14.1931 28.2294 13.5519 27.5888 13.5519 26.7981C13.5519 26.0075 14.1931 25.3663 14.9837 25.3663C15.7744 25.3663 16.415 26.0075 16.415 26.7981C16.415 27.5888 15.7744 28.2294 14.9837 28.2294ZM20.0125 28.2294C19.2219 28.2294 18.5806 27.5888 18.5806 26.7981C18.5806 26.0075 19.2219 25.3663 20.0125 25.3663C20.8031 25.3663 21.4437 26.0075 21.4437 26.7981C21.4437 27.5888 20.8031 28.2294 20.0125 28.2294ZM6.30125 22.0988H18.665V23.1644H6.30125V22.0988ZM12.19 16.1719V21.0988H3.60937C3.4375 21.0988 3.29687 20.9581 3.29687 20.7863V16.4844C3.29687 16.3125 3.4375 16.1719 3.60937 16.1719H12.19ZM21.5606 15.4431C21.5587 15.4381 21.5562 15.4338 21.5537 15.4294L19.2056 11.1013C19.205 11.1 19.2044 11.0994 19.2037 11.0981C19.1206 10.9481 18.9144 10.8263 18.7437 10.8263H13.5025C13.3306 10.8263 13.19 10.9669 13.19 11.1388V21.0988H21.39C21.5619 21.0988 21.7025 20.9581 21.7025 20.7863V16.0169C21.7025 15.85 21.6394 15.5963 21.5606 15.4431ZM19.29 15.2419H15.0981C14.9262 15.2419 14.7856 15.1013 14.7856 14.9294V12.9519C14.7856 12.78 14.9262 12.6394 15.0981 12.6394H17.8269C17.9987 12.6394 18.2081 12.7619 18.2925 12.9113L19.4494 14.9694C19.5337 15.1194 19.4619 15.2419 19.29 15.2419ZM20.65 4.20625L21.37 5.76L18.5012 7.8325C18.3619 7.93313 18.2475 8.15625 18.2475 8.32813V9.82625H14.7856V8.15875C14.7856 7.98875 14.8969 7.76875 15.0337 7.66563C15.035 7.66438 15.0369 7.66375 15.0381 7.6625L20.4981 3.69625C20.5287 3.86938 20.5794 4.04063 20.65 4.20625Z" fill="#F26822"/>
</svg>
