<svg width="32" height="32" viewBox="0 0 32 32" fill="none" xmlns="http://www.w3.org/2000/svg">
<g clip-path="url(#clip0_55_1314)">
<path fill-rule="evenodd" clip-rule="evenodd" d="M18.9995 3.44005C20.3288 3.75584 21.599 4.28223 22.7621 4.99926L25.2076 3.91189L28.0881 6.79233L27.0049 9.23788C27.7226 10.4021 28.249 11.6738 28.5641 13.0047L31.0588 13.9648V18.0393L28.5641 18.9995C28.2481 20.3289 27.7188 21.5968 27.0049 22.7621L28.0881 25.2076L25.2076 28.0881L22.7621 27.0049C21.6009 27.7229 20.3289 28.2481 18.9995 28.5641L18.0393 31.0588H13.9648L13.0047 28.5641C11.6711 28.2481 10.4032 27.7188 9.23788 27.0049L6.79233 28.0881L3.91189 25.2076L4.99926 22.7621C4.28121 21.6009 3.75597 20.3289 3.43591 18.9995L0.941162 18.0393V13.9648L3.43591 13.0047C3.75597 11.6711 4.28121 10.4032 4.99926 9.23788L3.91189 6.79233L6.79233 3.91189L9.23788 4.99926C10.4009 4.28223 11.6712 3.75584 13.0005 3.44005L13.9648 0.941162H18.0393L18.9995 3.44005ZM15.9972 6.43029C10.7111 6.43029 6.43029 10.7111 6.43029 15.9972C6.43029 21.2833 10.7111 25.5697 15.9972 25.5697C21.2833 25.5697 25.5697 21.2833 25.5697 15.9972C25.5697 10.7111 21.2833 6.43029 15.9972 6.43029ZM18.6405 13.7831L17.3768 15.0468L16.3849 14.0549L17.6486 12.7911L18.6405 13.7831ZM19.6995 13.4223L18.1919 11.9147C18.1919 11.9147 17.2972 10.9481 15.9163 10.4492C15.8845 10.438 15.8563 10.4184 15.8347 10.3924C15.8132 10.3665 15.7991 10.3352 15.7939 10.3018C15.7888 10.2685 15.7928 10.2343 15.8055 10.2031C15.8182 10.1718 15.8392 10.1446 15.8662 10.1243C16.6502 9.54446 17.7219 9.53975 18.7843 10.0806C18.9152 10.1471 19.3091 10.4142 19.4118 10.517L21.0083 12.1135L19.6995 13.4223ZM12.8568 14.7516C11.9287 15.1332 10.8227 14.9449 10.0725 14.1947C9.44996 13.5722 9.21504 12.7131 9.36425 11.9108C9.37065 11.8774 9.38602 11.8464 9.40871 11.8211C9.4314 11.7958 9.46055 11.7772 9.49304 11.7672C9.52552 11.7572 9.56011 11.7563 9.59308 11.7645C9.62605 11.7727 9.65616 11.7898 9.68017 11.8138C10.1723 12.3042 11.2713 13.4032 11.2713 13.4032L12.5629 13.0552L12.911 11.7636L11.3213 10.1739C11.2971 10.1496 11.2799 10.1193 11.2717 10.0861C11.2634 10.0528 11.2644 10.018 11.2745 9.98528C11.2846 9.95257 11.3034 9.92322 11.3289 9.90041C11.3544 9.87759 11.3857 9.86217 11.4193 9.8558C12.2197 9.71029 13.0778 9.94534 13.6999 10.5673C14.4501 11.3176 14.6383 12.4236 14.2593 13.3491L18.1548 17.2446C19.0829 16.8682 20.1863 17.0539 20.9392 17.8066C21.5589 18.4264 21.7957 19.2862 21.6494 20.0868C21.6431 20.1202 21.6278 20.1513 21.6052 20.1767C21.5825 20.2021 21.5533 20.2208 21.5208 20.2309C21.4883 20.2409 21.4537 20.2419 21.4206 20.2337C21.3876 20.2255 21.3574 20.2084 21.3334 20.1843C20.841 19.6936 19.7429 18.5955 19.7429 18.5955L18.4487 18.941L18.1033 20.2352L19.6935 21.8254C19.7177 21.8495 19.7348 21.8799 19.7431 21.9131C19.7514 21.9463 19.7504 21.9811 19.7404 22.0138C19.7303 22.0465 19.7116 22.0759 19.6861 22.0987C19.6606 22.1215 19.6294 22.137 19.5958 22.1434C18.7927 22.2909 17.932 22.0543 17.3118 21.434C16.559 20.6812 16.3734 19.5778 16.7524 18.6471L12.8568 14.7516ZM12.946 16.2605L15.1712 18.4857L12.0213 21.6356C11.8636 21.7932 11.6423 21.8744 11.406 21.861C11.1697 21.8477 10.9379 21.7411 10.7614 21.5646L9.86709 20.6703C9.69059 20.4938 9.58399 20.2619 9.57062 20.0257C9.55732 19.7894 9.63839 19.5681 9.79606 19.4104L12.946 16.2605ZM21.9748 12.5668C22.0039 12.5377 22.0385 12.5145 22.0765 12.4988C22.1146 12.483 22.1554 12.4749 22.1966 12.4749C22.2378 12.4749 22.2786 12.483 22.3167 12.4988C22.3547 12.5145 22.3893 12.5377 22.4184 12.5668L22.9667 13.1151C22.9958 13.1442 23.019 13.1788 23.0347 13.2169C23.0505 13.2549 23.0586 13.2957 23.0586 13.3369C23.0586 13.3781 23.0505 13.4189 23.0347 13.457C23.019 13.4951 22.9958 13.5296 22.9667 13.5588L21.1437 15.3818C21.0849 15.4406 21.0051 15.4736 20.9219 15.4736C20.8387 15.4736 20.7589 15.4406 20.7 15.3818L20.1518 14.8335C20.0929 14.7746 20.0599 14.6949 20.0599 14.6117C20.0599 14.5285 20.0929 14.4487 20.1518 14.3898L21.9748 12.5668Z" fill="#F26822"/>
</g>
<defs>
<clipPath id="clip0_55_1314">
<rect width="32" height="32" fill="white"/>
</clipPath>
</defs>
</svg>
