<svg width="32" height="32" viewBox="0 0 32 32" fill="none" xmlns="http://www.w3.org/2000/svg">
<path d="M15.4555 20.971C13.0705 19.033 9.89749 18.487 8.64949 18.3685C8.81699 21.4455 9.85149 23.6385 11.2255 25.196C13.5695 27.953 17.478 28.832 18.813 28.952C18.8575 25.5235 17.7915 22.888 15.4555 20.971ZM12.945 18.2985C13.7814 18.6265 14.5798 19.0439 15.3265 19.5435C15.503 18.375 15.8441 17.2374 16.3395 16.1645C15.5942 15.3737 14.6675 14.7763 13.6395 14.424C13.3165 15.189 12.7025 16.919 12.945 18.2985ZM22.321 20.3245C22.1114 17.8599 21.0569 15.5433 19.336 13.7665C17.5925 15.5198 16.5254 17.8332 16.3235 20.2975C16.6247 20.5536 16.9106 20.8271 17.18 21.1165C18.1623 22.178 18.8966 23.4443 19.33 24.824C19.8761 23.069 20.9141 21.5074 22.321 20.3245ZM23.318 20.858C21.461 22.336 20.093 24.458 19.8745 27.858C19.8875 28.2095 19.8975 28.5765 19.8905 28.9465C22.1485 28.661 29.5255 27.066 30 18.363C28.75 18.476 25.7375 18.945 23.318 20.858ZM25.7 18.3305C25.9585 16.9405 25.3335 15.1945 25.015 14.424C23.9815 14.7761 23.0507 15.3775 22.305 16.175C22.8107 17.2483 23.1539 18.3908 23.3235 19.565C24.0704 19.0716 24.8669 18.6582 25.7 18.3305ZM5.45999 9.41753C7.31449 10.9475 9.71999 11.31 12.368 11.0935C17.1045 10.67 21.732 7.42053 18.635 4.54103C17.035 3.25103 13.965 2.85103 11.7 3.13453C6.83349 3.74353 4.28999 5.38703 4.52749 7.75803C4.62295 8.40731 4.95485 8.99847 5.45949 9.41803L5.45999 9.41753ZM6.36999 7.70403C6.4209 7.65511 6.48097 7.61672 6.54675 7.59105C6.61252 7.56537 6.68271 7.55292 6.7533 7.55441C6.8239 7.5559 6.8935 7.57129 6.95814 7.59971C7.02277 7.62813 7.08117 7.66901 7.12999 7.72003C7.68538 8.21186 8.35965 8.55003 9.08599 8.70103C9.2239 8.73816 9.34141 8.82855 9.41268 8.95233C9.48394 9.0761 9.50312 9.22311 9.46598 9.36103C9.42885 9.49894 9.33846 9.61645 9.21469 9.68772C9.09091 9.75898 8.9439 9.77816 8.80598 9.74103C7.85749 9.47353 5.60199 8.61503 6.37049 7.70403H6.36999Z" fill="#F26822"/>
<path d="M7.5775 17.6355C7.60927 17.521 7.6786 17.4205 7.77436 17.3501C7.87011 17.2798 7.98674 17.2436 8.1055 17.2475C9.36575 17.3109 10.6131 17.5318 11.8185 17.905C11.8379 16.3973 12.1892 14.9125 12.8475 13.556C12.8993 13.4492 12.9851 13.3626 13.0915 13.31C13.1978 13.2573 13.3187 13.2415 13.435 13.265C14.7317 13.5731 15.919 14.2312 16.8675 15.1675C17.4191 14.1849 18.1524 13.3161 19.0285 12.6075C19.1241 12.537 19.2403 12.4999 19.3591 12.5019C19.4779 12.5039 19.5928 12.5448 19.686 12.6185C19.947 12.8433 20.1935 13.0844 20.424 13.3405C20.8223 12.6735 20.9731 11.8876 20.85 11.1205C20.6343 10.3479 20.1411 9.68207 19.465 9.25049C18.053 10.7485 15.5365 11.8585 12.4755 12.1655C9.9 12.4125 7.1685 12.014 5.174 10.5655C2.175 13.157 4.069 16.4765 7.5775 17.6355ZM3.956 16.595C3.80838 16.4328 3.66823 16.264 3.536 16.089C2.61449 16.9665 2.06472 18.1641 2 19.435C2.1925 23.086 5.9225 24.479 9.7545 25.0285C8.46189 23.1852 7.71485 21.0149 7.599 18.7665C6.20481 18.3992 4.94227 17.6466 3.956 16.595Z" fill="#F26822"/>
</svg>
