<svg width="32" height="32" viewBox="0 0 32 32" fill="none" xmlns="http://www.w3.org/2000/svg">
<path fill-rule="evenodd" clip-rule="evenodd" d="M5.17934 24.4786C4.88462 24.3481 4.55313 24.2202 4.15051 24.1205C3.82753 24.0401 3.49249 24.1116 3.23024 24.3159C2.96733 24.5213 2.81671 24.8303 2.81671 25.1647C2.81671 25.658 3.15431 26.0875 3.63807 26.2088C3.9746 26.294 4.25395 26.4176 4.53785 26.5526C4.59296 26.4326 4.64732 26.3199 4.69805 26.2146L4.70252 26.2056C4.96873 25.653 5.15141 25.2747 5.17934 24.4786ZM14.0461 26.8629C13.8277 26.828 13.5872 26.8118 13.3048 26.8118C12.4208 26.8118 12.0223 26.9771 11.4918 27.2319C11.3852 27.4947 11.3014 27.753 11.2357 28.018C11.1553 28.3448 11.2281 28.6843 11.4354 28.9492C11.6429 29.214 11.955 29.3659 12.2913 29.3659C12.7884 29.3659 13.2224 29.0245 13.345 28.5362C13.4477 28.1347 13.5964 27.8259 13.7681 27.4685L13.7853 27.4321C13.8723 27.2507 13.9613 27.0651 14.0461 26.8629Z" fill="#F26822"/>
<path fill-rule="evenodd" clip-rule="evenodd" d="M8.16406 27.3873C9.56933 27.3412 10.3779 26.9576 11.0336 26.6421C11.0406 26.6383 11.047 26.6344 11.0533 26.6318C11.6909 26.3229 12.1906 26.0811 13.3042 26.0811C13.8371 26.0811 14.25 26.1334 14.6432 26.2508C14.9764 26.3497 15.2559 26.4856 15.552 26.6292C15.9929 26.8424 16.4833 27.0788 17.1617 27.2316C17.2968 26.8492 17.4492 26.5305 17.5866 26.2419L17.6045 26.2042C17.7774 25.8462 17.9136 25.5642 17.9961 25.1976C17.3576 25.1137 16.9507 24.9164 16.4914 24.6942L16.485 24.691C16.0426 24.4773 15.5415 24.2352 14.8426 24.0822C14.82 24.0796 14.7979 24.0749 14.7766 24.0683C14.321 23.9746 13.8382 23.929 13.3035 23.929C12.8619 23.929 12.4419 23.9623 12.055 24.0276C12.0423 24.0305 12.0292 24.0328 12.0159 24.0343C11.1896 24.1781 10.6282 24.4483 10.1322 24.6871L10.1233 24.6916C9.69913 24.8977 9.32303 25.0802 8.77093 25.1738C8.66914 26.1552 8.41499 26.8373 8.16406 27.3873ZM24.5725 26.8262C24.4132 27.1695 24.2568 27.5494 24.1403 28.0181C24.06 28.3442 24.1327 28.6837 24.3401 28.9486C24.5476 29.2135 24.8597 29.3653 25.1959 29.3653C25.6931 29.3653 26.1271 29.0239 26.2497 28.5356C26.3442 28.1593 26.4847 27.8567 26.6358 27.5455C26.4506 27.4651 26.2818 27.3841 26.1259 27.309L26.0837 27.2886C25.5797 27.0444 25.2302 26.8748 24.5725 26.8262Z" fill="#F26822"/>
<path fill-rule="evenodd" clip-rule="evenodd" d="M24.3387 26.0832C24.3517 26.0828 24.3647 26.0832 24.3778 26.0843C25.3357 26.1146 25.8055 26.3424 26.3997 26.63L26.4405 26.6497C26.6878 26.7687 26.9438 26.8913 27.2414 27.0032C27.2534 27.007 27.2655 27.0114 27.2774 27.0165C27.4802 27.0901 27.6792 27.1517 27.8829 27.2025C27.9685 27.2235 28.0571 27.2344 28.1433 27.2344C28.7343 27.2344 29.2148 26.7513 29.2148 26.1577C29.2148 25.6643 28.8766 25.2342 28.3922 25.111C28.1497 25.0498 27.9199 24.9662 27.648 24.8411C27.5446 24.7932 27.4426 24.7434 27.3328 24.6905C26.7208 24.3949 26.0271 24.0599 24.863 23.9578C24.844 23.9577 24.8251 23.9561 24.8068 23.9531C24.5888 23.9361 24.3746 23.9278 24.1532 23.9278C23.0227 23.9278 22.2638 24.1403 21.718 24.3554C21.7071 25.4721 21.5113 26.2671 21.2579 26.9278C21.4929 26.8311 21.7038 26.7292 21.901 26.6339L21.9087 26.6301C22.5405 26.3237 23.0402 26.0818 24.1539 26.0818C24.2178 26.0817 24.2782 26.0817 24.3387 26.0832ZM10.483 20.4863C10.3687 19.9588 10.3129 19.399 10.3129 18.7851C10.3129 18.5771 10.3191 18.3773 10.3318 18.1833C10.2624 18.2161 10.1937 18.2494 10.1247 18.2828C9.48586 18.5904 8.98549 18.831 7.87883 18.831C7.59428 18.831 7.3455 18.8158 7.1182 18.7849C7.09812 18.7837 7.07845 18.7808 7.05945 18.7765C6.47596 18.6886 6.09044 18.5033 5.6451 18.2892L5.61511 18.2745C5.24495 18.0956 4.82613 17.8937 4.28916 17.7459L4.27867 17.7441C4.25537 17.7398 4.23306 17.7335 4.21174 17.7252C4.19216 17.7202 4.17192 17.7153 4.15168 17.7103C3.82812 17.6306 3.49242 17.7021 3.23009 17.9075C2.96776 18.113 2.81714 18.4213 2.81714 18.7544C2.81714 19.2478 3.1554 19.6779 3.63982 19.8011C3.99659 19.8911 4.29271 20.0258 4.56521 20.156C4.60668 20.1751 4.65328 20.1981 4.70368 20.2237C5.40252 20.5607 6.2737 20.9806 7.8609 20.9825H7.87809C9.06332 20.9825 9.84395 20.7568 10.483 20.4863ZM4.99444 21.1641C5.11085 21.4723 5.23933 21.7388 5.35864 21.9864L5.36244 21.9947C5.67137 22.6354 5.91321 23.1377 5.91511 24.2444V24.2578C5.91511 25.3759 5.67129 25.8814 5.36302 26.5202L5.35732 26.5316C5.259 26.7359 5.15688 26.9464 5.06054 27.1839C4.94123 27.4769 4.85439 27.7417 4.78614 28.0174C4.70575 28.3442 4.77846 28.6843 4.98593 28.9491C5.1934 29.2134 5.50414 29.3652 5.83984 29.3652C6.33831 29.3652 6.77225 29.0238 6.89544 28.5355C6.9836 28.1865 7.11225 27.8981 7.23866 27.6329C7.24717 27.6082 7.25816 27.5848 7.27146 27.5628C7.27783 27.5491 7.28444 27.5353 7.29113 27.5214C7.29881 27.5061 7.30641 27.4901 7.31344 27.4741C7.31468 27.4716 7.316 27.4691 7.31666 27.4671C7.61179 26.8578 7.97839 26.1003 8.06556 24.8389C8.06581 24.8294 8.06655 24.8198 8.06754 24.8104C8.07961 24.6288 8.08564 24.4426 8.08564 24.2575C8.08564 23.073 7.86272 22.301 7.61914 21.711C6.43077 21.6803 5.62808 21.4334 4.99444 21.1641ZM14.0345 19.7164C14.6746 19.7995 15.083 19.9969 15.5475 20.2217L15.5685 20.2319C16.0892 20.4818 16.6778 20.7653 17.5675 20.9007C17.5871 20.902 17.6065 20.9049 17.6254 20.9093C17.9731 20.9595 18.3347 20.9837 18.7302 20.9837C19.4006 20.9837 19.9936 20.9119 20.5407 20.7646C20.5528 20.7606 20.565 20.7572 20.5773 20.7546C21.1127 20.6069 21.5311 20.4053 21.9008 20.2275L21.9097 20.223C22.3359 20.0164 22.7146 19.8328 23.2668 19.7396C23.2339 19.4348 23.2174 19.1153 23.2174 18.7851C23.2174 18.3498 23.2448 17.9465 23.3005 17.5642C22.2258 17.6784 21.5662 17.9979 20.9761 18.2835C20.9754 18.2835 20.9704 18.286 20.9697 18.2867C20.709 18.4118 20.4623 18.5301 20.1876 18.6243C20.1749 18.6294 20.1619 18.6336 20.1486 18.6372C19.7266 18.7725 19.2885 18.8324 18.7303 18.8324C18.0487 18.8324 17.5548 18.7455 17.0304 18.5338C17.0177 18.5293 17.0053 18.5242 16.9932 18.5184C16.8157 18.4434 16.6439 18.3617 16.4838 18.2841C15.887 17.9955 15.2155 17.6707 14.1154 17.5607C14.0117 17.8733 13.9476 18.2342 13.9476 18.7839C13.9475 19.1488 13.9749 19.4463 14.0345 19.7164ZM18.7302 21.7144C18.5199 21.7144 18.3179 21.7081 18.1218 21.6951C18.1704 21.7999 18.2183 21.8993 18.2638 21.994C18.5721 22.6329 18.8152 23.1371 18.8152 24.2571C18.8152 24.4998 18.8053 24.7093 18.7857 24.8976C18.7851 24.9047 18.7843 24.9117 18.7833 24.9187C18.7052 25.607 18.5012 26.0301 18.2645 26.5202L18.2466 26.5572C18.0799 26.9056 17.9077 27.2656 17.7688 27.7263C17.7643 27.7482 17.758 27.7692 17.7499 27.7892C17.729 27.8595 17.7087 27.9354 17.6887 28.0166C17.607 28.344 17.6798 28.6829 17.8865 28.9478C18.094 29.2133 18.406 29.3652 18.7418 29.3652C19.2389 29.3652 19.673 29.0238 19.798 28.5343C19.8976 28.1367 20.0443 27.831 20.2148 27.4774L20.2193 27.4679C20.2256 27.4545 20.2333 27.4385 20.241 27.4219L20.2607 27.381C20.5677 26.7409 20.987 25.8678 20.987 24.2577V24.1458C20.9851 24.1251 20.9849 24.1045 20.9865 24.0841C20.9654 22.9051 20.7152 22.1433 20.449 21.5393C19.9192 21.657 19.3536 21.7144 18.7302 21.7144ZM26.8978 18.0769C26.8668 18.2868 26.852 18.519 26.852 18.7844C26.852 19.6682 27.0162 20.0715 27.27 20.6038C27.4756 20.6797 27.6776 20.742 27.884 20.7934C27.9708 20.8145 28.0589 20.826 28.1457 20.826C28.7367 20.826 29.2172 20.3429 29.2172 19.7493C29.2172 19.256 28.8796 18.8265 28.3959 18.7045C28.0079 18.6063 27.6957 18.4569 27.3658 18.2986L27.2937 18.2635C27.1656 18.2019 27.0353 18.1387 26.8978 18.0769ZM5.13564 14.0213C5.16729 13.8092 5.18241 13.5764 5.18241 13.3118C5.18241 12.4286 5.0179 12.0256 4.76334 11.494C4.55794 11.4182 4.356 11.356 4.14978 11.3046C3.82746 11.2249 3.49176 11.2969 3.22951 11.5018C2.96718 11.7073 2.81656 12.0168 2.81656 12.3506C2.81656 12.844 3.15416 13.2734 3.63792 13.3947C4.04063 13.4968 4.36038 13.6513 4.69864 13.8153L4.70567 13.8191C4.84448 13.8862 4.98576 13.9545 5.13564 14.0213Z" fill="#F26822"/>
<path fill-rule="evenodd" clip-rule="evenodd" d="M14.4943 14.1551C14.1931 14.0571 13.8416 13.9966 13.3023 13.9966C12.9131 13.9966 12.599 14.0284 12.3155 14.0975C12.2286 14.7158 12.0342 15.1186 11.8133 15.5774C11.5542 16.1122 11.2606 16.7179 11.1227 17.6522C11.0698 18.0083 11.0442 18.3791 11.0442 18.7857C11.0442 19.4478 11.114 20.0365 11.258 20.5843C11.2617 20.5957 11.2647 20.6074 11.2673 20.619C11.4195 21.1772 11.6286 21.6113 11.8133 21.9952C12.0089 22.4015 12.1812 22.7598 12.2794 23.2561C12.6057 23.2169 12.9485 23.1969 13.303 23.1969C13.7185 23.1969 14.1068 23.2223 14.4779 23.2744C14.3521 22.2609 14.0447 21.6216 13.7688 21.0494C13.6322 20.7654 13.5039 20.4993 13.4083 20.1962C13.4031 20.1847 13.3993 20.1732 13.3954 20.1611C13.2717 19.7558 13.2161 19.3313 13.2161 18.7845C13.2161 18.0912 13.3054 17.5884 13.5237 17.0565C13.5288 17.0413 13.5348 17.0267 13.5417 17.0126C13.6104 16.8459 13.6879 16.6875 13.77 16.5195C14.0573 15.9231 14.3806 15.2512 14.4943 14.1551Z" fill="#F26822"/>
<path fill-rule="evenodd" clip-rule="evenodd" d="M8.733 14.5326C9.80364 14.4177 10.4637 14.0994 11.0546 13.8153C11.3092 13.6915 11.5709 13.5639 11.8644 13.4675C12.2838 13.3283 12.7279 13.2658 13.3023 13.2658C13.9856 13.2658 14.4776 13.351 14.9904 13.5595C15.0111 13.5659 15.0309 13.574 15.0498 13.5838C15.22 13.6539 15.3876 13.7354 15.5501 13.8139C16.1461 14.1021 16.8157 14.4265 17.9187 14.5373C18.0212 14.2277 18.085 13.8662 18.085 13.3117C18.085 12.9469 18.0579 12.6501 17.9983 12.3814C17.3567 12.2977 16.9483 12.0999 16.4843 11.875C15.9546 11.6197 15.3589 11.3324 14.4549 11.194C14.4415 11.1927 14.4281 11.1907 14.415 11.1879C14.0656 11.137 13.7017 11.1124 13.3034 11.1124C12.634 11.1124 12.0395 11.1855 11.4861 11.3353C11.4781 11.3378 11.47 11.3401 11.4619 11.342C10.9231 11.4898 10.5031 11.6921 10.1327 11.8712L10.1238 11.8757C9.6997 12.0812 9.32269 12.2637 8.76729 12.3574C8.80051 12.6625 8.81678 12.9778 8.81678 13.3122C8.81703 13.7423 8.78935 14.1453 8.733 14.5326ZM25.2156 14.117C25.128 14.7185 24.9381 15.1148 24.7242 15.5608L24.7134 15.5831C24.4993 16.0277 24.2563 16.5308 24.1049 17.2259C24.103 17.2372 24.1006 17.2482 24.0976 17.2592C23.9967 17.7259 23.9482 18.2247 23.9482 18.7845C23.9482 19.2146 23.9789 19.623 24.0389 19.9984C24.1818 20.8886 24.4665 21.4758 24.7173 21.994C24.9125 22.3985 25.0846 22.7557 25.1825 23.2565C26.1951 23.3786 26.88 23.6659 27.4343 23.9284C27.381 22.5188 26.9909 21.7106 26.6734 21.052C26.6734 21.0514 26.6729 21.0508 26.6728 21.0502L26.6726 21.05C26.6721 21.0494 26.672 21.0488 26.6715 21.0478L26.6714 21.0475L26.6711 21.0468C26.3624 20.4045 26.1207 19.9009 26.1207 18.7845C26.1207 18.2656 26.1724 17.8482 26.2828 17.4697C26.3862 17.1111 26.533 16.8104 26.6747 16.5194C26.8806 16.0908 27.1091 15.6147 27.2634 14.9674C26.7861 14.812 26.4026 14.6272 26.0831 14.4727C25.7809 14.3257 25.5254 14.2016 25.2156 14.117Z" fill="#F26822"/>
<path fill-rule="evenodd" clip-rule="evenodd" d="M21.5486 11.6111C21.6619 12.1354 21.7172 12.695 21.7172 13.3118C21.7172 13.5171 21.7107 13.7188 21.698 13.9159C21.752 13.8903 21.8052 13.8648 21.8581 13.8396L21.9111 13.814C22.5416 13.5083 23.0414 13.2665 24.155 13.2665C24.4446 13.2665 24.6964 13.2822 24.9254 13.3141C24.9386 13.3153 24.9515 13.3171 24.9643 13.3197C25.5663 13.4091 25.972 13.6063 26.4014 13.8146C26.7764 13.9955 27.2021 14.2011 27.7569 14.3524C27.7747 14.3557 27.7919 14.3602 27.8085 14.3659L27.8802 14.384C27.8815 14.384 27.8866 14.3852 27.8879 14.3859C27.9671 14.4063 28.0532 14.4171 28.1451 14.4171C28.7361 14.4171 29.2167 13.934 29.2167 13.3404C29.2167 12.8471 28.8791 12.4176 28.3953 12.2963C28.039 12.2067 27.7441 12.073 27.4733 11.9428L27.4691 11.9408L27.4689 11.9407L27.4688 11.9406L27.4671 11.9399L27.4669 11.9398L27.4668 11.9397L27.4667 11.9396C27.4606 11.9366 27.4545 11.9335 27.4486 11.9302C27.414 11.9129 27.3789 11.8956 27.341 11.8777C27.3391 11.8771 27.3333 11.8739 27.3314 11.8733C26.6324 11.5362 25.7628 11.117 24.1803 11.1126C24.1749 11.1126 24.1695 11.1127 24.1641 11.1126H24.1557C22.9668 11.1126 22.1865 11.3392 21.5486 11.6111ZM11.787 4.68302C11.7787 4.70658 11.768 4.72923 11.7551 4.75061C11.3781 5.53777 11.045 6.37045 11.045 7.83917V7.9308C11.0499 7.9641 11.05 7.99748 11.0458 8.03003C11.0691 9.19849 11.3185 9.95772 11.5836 10.5603C12.1165 10.4414 12.6826 10.3833 13.3036 10.3833C13.514 10.3833 13.716 10.3897 13.9119 10.4026C13.8629 10.2971 13.8146 10.197 13.7688 10.1016C13.4598 9.46272 13.2161 8.95789 13.2161 7.83851C13.2161 7.60551 13.2269 7.3873 13.2486 7.19008C13.3252 6.49381 13.5308 6.06813 13.7688 5.57544L13.7778 5.55627C13.9431 5.21223 14.1301 4.82233 14.273 4.34055C14.2984 4.25469 14.322 4.1683 14.3438 4.08144C14.3655 3.99279 14.3764 3.90273 14.3764 3.81465C14.3764 3.21728 13.8894 2.73096 13.2901 2.73096C12.793 2.73096 12.3589 3.07236 12.2339 3.5619C12.1336 3.96337 11.985 4.27222 11.8126 4.63023C11.8035 4.64857 11.7951 4.666 11.787 4.68302ZM5.3988 4.55281C5.58752 4.63461 5.76574 4.72029 5.95346 4.81159C6.45325 5.05401 6.80126 5.22281 7.46093 5.27139C7.61981 4.93024 7.77614 4.55107 7.89354 4.08028C7.91461 3.99287 7.9261 3.90355 7.9261 3.81672C7.9261 3.21811 7.43787 2.73112 6.8386 2.73112C6.34146 2.73112 5.90744 3.07252 5.7849 3.56083C5.69212 3.9328 5.55058 4.23669 5.3988 4.55281Z" fill="#F26822"/>
<path fill-rule="evenodd" clip-rule="evenodd" d="M10.316 7.74048C10.3268 6.62415 10.5221 5.83055 10.7748 5.17162C10.541 5.26805 10.3309 5.36943 10.1343 5.46453L10.126 5.46833C9.48785 5.77527 8.98748 6.01653 7.88081 6.01653C7.81629 6.01653 7.75556 6.01488 7.69458 6.01315L7.68607 6.01323C7.67558 6.01323 7.66508 6.01282 7.65459 6.01191C6.69401 5.98117 6.20273 5.74297 5.63502 5.46824C5.35526 5.33208 5.09912 5.20988 4.79994 5.09751C4.78292 5.09255 4.76598 5.08627 4.74938 5.07859C4.55472 5.00648 4.35606 4.94565 4.1544 4.8964C3.83085 4.81601 3.49581 4.88748 3.23414 5.09239C2.97115 5.29787 2.81995 5.60746 2.81995 5.9406C2.81995 6.43395 3.15755 6.86343 3.64131 6.98472C3.93677 7.06007 4.18316 7.1641 4.38542 7.25597C4.4473 7.28349 4.51175 7.31464 4.57752 7.34595C4.61643 7.36446 4.65601 7.38363 4.69683 7.40279C5.28593 7.68933 6.01344 8.0423 7.20049 8.13988C7.40796 8.15839 7.63005 8.1674 7.88081 8.1674C9.01706 8.16731 9.77356 7.95505 10.316 7.74048ZM4.59958 8.16896C4.65287 9.58133 5.04302 10.3873 5.36054 11.0442C5.36567 11.0544 5.37013 11.0653 5.37393 11.0761C5.67774 11.706 5.91379 12.2115 5.91379 13.3117C5.91379 13.8229 5.86273 14.2403 5.75234 14.6244C5.65344 14.9672 5.51497 15.255 5.36814 15.5601L5.36046 15.5754C5.15382 16.0052 4.92536 16.4816 4.77102 17.1295C5.23206 17.2798 5.60032 17.4574 5.9323 17.6176L5.96105 17.6317C6.27163 17.7807 6.52017 17.9 6.81745 17.9813C6.90528 17.3775 7.09647 16.9794 7.31154 16.5314L7.316 16.5225C7.53065 16.0793 7.77266 15.5782 7.92626 14.8848C7.92882 14.865 7.93303 14.8456 7.93873 14.8269C8.03796 14.3538 8.08572 13.8582 8.08572 13.3116C8.08572 12.8911 8.05821 12.5053 8.0007 12.1334C7.99541 12.1131 7.9917 12.0921 7.98996 12.0705L7.98946 12.0634C7.84603 11.2004 7.5661 10.6206 7.31864 10.1079C7.12183 9.69866 6.94923 9.33958 6.8519 8.84012C5.83646 8.7199 5.15233 8.43212 4.59958 8.16896ZM27.494 5.54351C27.4355 5.67108 27.3791 5.788 27.3293 5.89136C27.0623 6.44453 26.8801 6.82253 26.8524 7.61762C27.1388 7.74535 27.4775 7.87705 27.8834 7.97761C27.9701 7.99934 28.0588 8.01016 28.145 8.01016C28.736 8.01016 29.2166 7.52706 29.2166 6.93349C29.2166 6.44015 28.8783 6.01001 28.3939 5.88682C28.056 5.80171 27.7763 5.67827 27.494 5.54351ZM17.555 8.82186C17.6802 9.83268 17.9871 10.4712 18.2618 11.043L18.265 11.0494C18.4067 11.3443 18.5394 11.6193 18.6364 11.9371C18.7602 12.3398 18.8158 12.7642 18.8158 13.3118C18.8158 14.0196 18.7246 14.5276 18.5005 15.065C18.4265 15.2405 18.3442 15.4109 18.2644 15.5755C17.9766 16.1731 17.6532 16.845 17.539 17.9419C17.8419 18.04 18.1943 18.1015 18.7301 18.1015C19.1162 18.1015 19.4305 18.0695 19.7183 17.9995C19.8048 17.3834 19.9983 16.9822 20.2184 16.5258L20.2242 16.5131C20.4814 15.9776 20.7724 15.3706 20.909 14.4471C20.9109 14.4363 20.9128 14.4254 20.9154 14.4146C20.9632 14.0681 20.9875 13.6972 20.9875 13.3117C20.9875 12.6384 20.9167 12.0442 20.7699 11.4954C20.6173 10.9274 20.4061 10.489 20.2198 10.1022L20.2146 10.0919C20.022 9.69205 19.851 9.33611 19.7533 8.84094C19.4306 8.87936 19.0878 8.89853 18.7301 8.89853C18.3105 8.89861 17.922 8.87341 17.555 8.82186Z" fill="#F26822"/>
<path fill-rule="evenodd" clip-rule="evenodd" d="M24.7918 4.46838C24.7836 4.49118 24.7731 4.51283 24.7606 4.53324C24.747 4.56224 24.7333 4.59264 24.7197 4.62272C24.7185 4.62528 24.7171 4.62776 24.7165 4.6304C24.406 5.27107 24.0547 5.99667 23.9685 7.24437C23.9686 7.26329 23.9673 7.28196 23.9647 7.30022C23.9532 7.47737 23.9475 7.65765 23.9475 7.83802C23.9475 9.02309 24.1706 9.79529 24.4143 10.3853C25.6043 10.4174 26.4075 10.6653 27.0414 10.9351C26.9237 10.6225 26.7936 10.3537 26.6727 10.1042L26.6682 10.0953C26.3625 9.45967 26.1213 8.95741 26.1193 7.85207V7.83868C26.1193 6.72177 26.3618 6.21826 26.6694 5.58074C26.7614 5.39054 26.8718 5.16142 26.9733 4.91314C27.092 4.6209 27.1794 4.35601 27.2471 4.08029C27.3281 3.75294 27.2548 3.41269 27.0466 3.14656C26.8392 2.88167 26.5284 2.73047 26.1934 2.73047C25.6949 2.73047 25.261 3.07187 25.1378 3.56018C25.0558 3.8848 24.9442 4.15118 24.7918 4.46838ZM17.9894 5.23405C18.2092 5.26974 18.4497 5.28635 18.7309 5.28635C19.6113 5.28635 20.0102 5.12127 20.543 4.86621C20.6478 4.60537 20.7314 4.34708 20.7974 4.08071C20.8203 3.99131 20.8318 3.90331 20.8318 3.81647C20.8318 3.21778 20.3436 2.73088 19.7443 2.73088C19.2472 2.73088 18.8132 3.07228 18.6906 3.56059C18.5879 3.9633 18.4392 4.27223 18.2675 4.63024L18.2567 4.65254C18.1673 4.83779 18.0762 5.02708 17.9894 5.23405Z" fill="#F26822"/>
<path fill-rule="evenodd" clip-rule="evenodd" d="M14.8711 4.8652C14.733 5.25568 14.5775 5.57997 14.437 5.87279L14.4274 5.89196C14.2544 6.24972 14.1186 6.53147 14.0359 6.89914C14.6731 6.98094 15.0695 7.17197 15.5501 7.40398L15.5654 7.411C16.0121 7.62673 16.5182 7.87113 17.2241 8.02051C17.6816 8.11941 18.1743 8.16734 18.7309 8.16734C19.1872 8.16734 19.6142 8.13354 19.9996 8.06653C20.8421 7.92227 21.4095 7.64722 21.9098 7.40472C22.3366 7.19899 22.7134 7.01721 23.2616 6.92393C23.3622 5.94542 23.6169 5.26237 23.8685 4.71094C22.4576 4.75721 21.6535 5.14033 21.0017 5.45571L20.9939 5.45984L20.9936 5.46L20.9933 5.46017L20.9929 5.46033L20.981 5.46703C20.9791 5.46769 20.9733 5.47083 20.9714 5.47149C20.3371 5.77596 19.8367 6.01656 18.7301 6.01656C18.2182 6.01656 17.7986 5.96426 17.4126 5.85123C17.4008 5.8485 17.389 5.84503 17.3772 5.84106L17.37 5.8385C17.0511 5.74142 16.7779 5.60955 16.4888 5.47025C16.045 5.25551 15.5531 5.01797 14.8711 4.8652Z" fill="#F26822"/>
</svg>
